<mxfile host="app.diagrams.net" modified="2024-04-27T10:35:26.970Z" agent="Mozilla/5.0 (Windows NT 10.0; Win64; x64) AppleWebKit/537.36 (KHTML, like Gecko) Chrome/124.0.0.0 Safari/537.36 Edg/124.0.0.0" etag="hV2A-NXyaAa_JwkJzrQq" version="24.2.7" type="device">
  <diagram name="Page-1" id="aKZPnTIXdFWdKTnRhBcn">
    <mxGraphModel dx="3707" dy="1490" grid="1" gridSize="10" guides="1" tooltips="1" connect="1" arrows="1" fold="1" page="1" pageScale="1" pageWidth="850" pageHeight="1100" math="0" shadow="0">
      <root>
        <mxCell id="0" />
        <mxCell id="1" parent="0" />
        <UserObject label="" plantUmlData="{&quot;data&quot;:&quot;@startuml\n\n&#39; Define skin parameters\nskinparam rectangle {\n    BorderColor DarkSlateGray\n    BackgroundColor LightCyan\n}\n\nskinparam database {\n    BorderColor DarkSlateGray\n    BackgroundColor LightSkyBlue\n}\n\nskinparam actor {\n    BorderColor DarkSlateGray\n    BackgroundColor LightGreen\n}\n\nskinparam arrow {\n    BorderColor DarkSlateGray\n    BorderThickness 2\n}\n\n&#39; Define system boundary\nrectangle \&quot;Airport System\&quot; {\n    &#39; Define external entities\n    actor \&quot;Passenger\&quot; as passenger\n    actor \&quot;Airline Staff\&quot; as airlineStaff\n    actor \&quot;Security Staff\&quot; as securityStaff\n    actor \&quot;Ground Transportation Provider\&quot; as transportationProvider\n    actor \&quot;Duty Free Vendor\&quot; as dutyFreeVendor\n\n    &#39; Define processes\n    rectangle \&quot;Flight Management\&quot; {\n        rectangle \&quot;Flight Operations\&quot; {\n            rectangle \&quot;Check-in\&quot; as checkin\n            rectangle \&quot;Boarding\&quot; as boarding\n            rectangle \&quot;Baggage Handling\&quot; as baggageHandling\n        }\n        rectangle \&quot;Flight Scheduling\&quot; as flightScheduling\n        rectangle \&quot;Flight Monitoring\&quot; as flightMonitoring\n    }\n\n    rectangle \&quot;Security Check\&quot; as securityCheck\n    rectangle \&quot;Ground Transportation Services\&quot; as transportationServices\n    rectangle \&quot;Duty Free Shop Management\&quot; as dutyFreeManagement\n\n    &#39; Define data stores\n    database \&quot;Airline\&quot; as airline\n    database \&quot;Flight\&quot; as flight\n    database \&quot;Ticket\&quot; as ticket\n    database \&quot;Payment\&quot; as payment\n    database \&quot;Passenger\&quot; as passengerTable\n    database \&quot;Employee\&quot; as employee\n    database \&quot;Flight Attendant\&quot; as flightAttendant\n    database \&quot;Baggage\&quot; as baggage\n    database \&quot;Lost and Found\&quot; as lostAndFound\n    database \&quot;City\&quot; as city\n    database \&quot;Airport\&quot; as airportTable\n    database \&quot;Hangar\&quot; as hangar\n    database \&quot;Airplane\&quot; as airplane\n    database \&quot;Class\&quot; as class\n    database \&quot;Ground Transportation\&quot; as groundTransportation\n    database \&quot;Baggage Staff\&quot; as baggageStaff\n    database \&quot;Security Point\&quot; as securityPoint\n    database \&quot;Security Staff\&quot; as securityStaffTable\n    database \&quot;Supervisor\&quot; as supervisor\n    database \&quot;Passenger Lounge\&quot; as passengerLounge\n    database \&quot;Vendor\&quot; as vendor\n    database \&quot;Duty Free Product\&quot; as dutyFreeProduct\n    database \&quot;Purchase\&quot; as purchase\n    database \&quot;Runway Data\&quot; as runwayData\n\n    &#39; Define data flows\n    passenger --&gt; checkin : Check-in\n    passenger --&gt; baggageHandling : Baggage\n    airlineStaff --&gt; flightScheduling : Flight schedules\n    airlineStaff --&gt; flightMonitoring : Flight status\n    baggageHandling --&gt; baggage : Baggage data\n    securityStaff --&gt; securityCheck : Security checks\n    securityCheck --&gt; flight : Flight data\n    transportationProvider --&gt; transportationServices : Ground transportation requests\n    transportationServices --&gt; flight : Flight data\n    dutyFreeVendor --&gt; dutyFreeManagement : Inventory updates\n    dutyFreeManagement --&gt; flight : Inventory data\n\n    &#39; Define relationships between tables\n    flight --&gt; airportTable : Departure/Arrival airport\n    flight --&gt; airline : Operating airline\n    flight --&gt; employee : Pilots/Crew\n    flight --&gt; ticket : Passenger bookings\n    ticket --&gt; payment : Payment details\n    ticket --&gt; passengerTable : Passenger details\n    ticket --&gt; baggage : Passenger baggage\n    passengerTable --&gt; lostAndFound : Lost and found items\n    employee --&gt; airline : Employing airline\n    employee --&gt; airportTable : Working airport\n    flightAttendant --&gt; flight : Assigned flights\n    baggage --&gt; lostAndFound : Lost baggage\n    flight --&gt; city : Origin/Destination city\n    flight --&gt; hangar : Assigned hangar\n    flight --&gt; airplane : Assigned airplane\n    ticket --&gt; class : Ticket class\n    passengerTable --&gt; groundTransportation : Ground transportation requests\n    groundTransportation --&gt; flight : Associated flights\n    baggageStaff --&gt; baggage : Managed baggage\n    securityPoint --&gt; securityStaffTable : Supervised security staff\n    supervisor --&gt; securityStaffTable : Supervising security staff\n    passengerTable --&gt; passengerLounge : Lounge access\n    vendor --&gt; passengerLounge : Shop location\n    vendor --&gt; dutyFreeProduct : Products sold\n    passengerTable --&gt; purchase : Purchased items\n    flight --&gt; runwayData : Assigned runway\n}\n\n@enduml\n&quot;,&quot;format&quot;:&quot;svg&quot;}" id="JWACeCHndfybG3oxAd6L-1">
          <mxCell style="shape=image;noLabel=1;verticalAlign=top;aspect=fixed;imageAspect=0;image=data:image/svg+xml,PD94bWwgdmVyc2lvbj0iMS4wIiBlbmNvZGluZz0idXMtYXNjaWkiIHN0YW5kYWxvbmU9Im5vIj8+PHN2ZyB4bWxucz0iaHR0cDovL3d3dy53My5vcmcvMjAwMC9zdmciIHhtbG5zOnhsaW5rPSJodHRwOi8vd3d3LnczLm9yZy8xOTk5L3hsaW5rIiBjb250ZW50U3R5bGVUeXBlPSJ0ZXh0L2NzcyIgaGVpZ2h0PSI4NDBweCIgcHJlc2VydmVBc3BlY3RSYXRpbz0ibm9uZSIgc3R5bGU9IndpZHRoOjIxMDhweDtoZWlnaHQ6ODQwcHg7YmFja2dyb3VuZDojRkZGRkZGOyIgdmVyc2lvbj0iMS4xIiB2aWV3Qm94PSIwIDAgMjEwOCA4NDAiIHdpZHRoPSIyMTA4cHgiIHpvb21BbmRQYW49Im1hZ25pZnkiPjxkZWZzLz48Zz48IS0tY2x1c3RlciBBaXJwb3J0IFN5c3RlbS0tPjxnIGlkPSJjbHVzdGVyX0FpcnBvcnQgU3lzdGVtIj48cmVjdCBmaWxsPSIjRTBGRkZGIiBoZWlnaHQ9IjgyNyIgcng9IjIuNSIgcnk9IjIuNSIgc3R5bGU9InN0cm9rZTojMkY0RjRGO3N0cm9rZS13aWR0aDoxLjA7IiB3aWR0aD0iMjAyOCIgeD0iNyIgeT0iNyIvPjx0ZXh0IGZpbGw9IiMwMDAwMDAiIGZvbnQtZmFtaWx5PSJzYW5zLXNlcmlmIiBmb250LXNpemU9IjE0IiBmb250LXdlaWdodD0iYm9sZCIgbGVuZ3RoQWRqdXN0PSJzcGFjaW5nIiB0ZXh0TGVuZ3RoPSI5OSIgeD0iOTcxLjUiIHk9IjIyLjIzNDQiPkFpcnBvcnQgU3lzdGVtPC90ZXh0PjwvZz48IS0tY2x1c3RlciBGbGlnaHQgTWFuYWdlbWVudC0tPjxnIGlkPSJjbHVzdGVyX0ZsaWdodCBNYW5hZ2VtZW50Ij48cmVjdCBmaWxsPSIjRTBGRkZGIiBoZWlnaHQ9IjE0OSIgcng9IjIuNSIgcnk9IjIuNSIgc3R5bGU9InN0cm9rZTojMkY0RjRGO3N0cm9rZS13aWR0aDoxLjA7IiB3aWR0aD0iNzU5IiB4PSIzMSIgeT0iNDQ1Ii8+PHRleHQgZmlsbD0iIzAwMDAwMCIgZm9udC1mYW1pbHk9InNhbnMtc2VyaWYiIGZvbnQtc2l6ZT0iMTQiIGZvbnQtd2VpZ2h0PSJib2xkIiBsZW5ndGhBZGp1c3Q9InNwYWNpbmciIHRleHRMZW5ndGg9IjEyMCIgeD0iMzUwLjUiIHk9IjQ2MC4yMzQ0Ij5GbGlnaHQgTWFuYWdlbWVudDwvdGV4dD48L2c+PCEtLWNsdXN0ZXIgRmxpZ2h0IE9wZXJhdGlvbnMtLT48ZyBpZD0iY2x1c3Rlcl9GbGlnaHQgT3BlcmF0aW9ucyI+PHJlY3QgZmlsbD0iI0UwRkZGRiIgaGVpZ2h0PSI4NCIgcng9IjIuNSIgcnk9IjIuNSIgc3R5bGU9InN0cm9rZTojMkY0RjRGO3N0cm9rZS13aWR0aDoxLjA7IiB3aWR0aD0iMzg2IiB4PSI1NSIgeT0iNDg2Ii8+PHRleHQgZmlsbD0iIzAwMDAwMCIgZm9udC1mYW1pbHk9InNhbnMtc2VyaWYiIGZvbnQtc2l6ZT0iMTQiIGZvbnQtd2VpZ2h0PSJib2xkIiBsZW5ndGhBZGp1c3Q9InNwYWNpbmciIHRleHRMZW5ndGg9IjExOSIgeD0iMTg4LjUiIHk9IjUwMS4yMzQ0Ij5GbGlnaHQgT3BlcmF0aW9uczwvdGV4dD48L2c+PCEtLWVudGl0eSBwYXNzZW5nZXItLT48ZyBpZD0iZWxlbV9wYXNzZW5nZXIiPjxlbGxpcHNlIGN4PSIyMzQiIGN5PSIzMTcuNSIgZmlsbD0iIzkwRUU5MCIgcng9IjgiIHJ5PSI4IiBzdHlsZT0ic3Ryb2tlOiMyRjRGNEY7c3Ryb2tlLXdpZHRoOjAuNTsiLz48cGF0aCBkPSJNMjM0LDMyNS41IEwyMzQsMzUyLjUgTTIyMSwzMzMuNSBMMjQ3LDMzMy41IE0yMzQsMzUyLjUgTDIyMSwzNjcuNSBNMjM0LDM1Mi41IEwyNDcsMzY3LjUgIiBmaWxsPSJub25lIiBzdHlsZT0ic3Ryb2tlOiMyRjRGNEY7c3Ryb2tlLXdpZHRoOjAuNTsiLz48dGV4dCBmaWxsPSIjMDAwMDAwIiBmb250LWZhbWlseT0ic2Fucy1zZXJpZiIgZm9udC1zaXplPSIxNCIgbGVuZ3RoQWRqdXN0PSJzcGFjaW5nIiB0ZXh0TGVuZ3RoPSI2MyIgeD0iMjAyLjUiIHk9IjM4Mi4yMzQ0Ij5QYXNzZW5nZXI8L3RleHQ+PC9nPjwhLS1lbnRpdHkgYWlybGluZVN0YWZmLS0+PGcgaWQ9ImVsZW1fYWlybGluZVN0YWZmIj48ZWxsaXBzZSBjeD0iNjAzIiBjeT0iMzE3LjUiIGZpbGw9IiM5MEVFOTAiIHJ4PSI4IiByeT0iOCIgc3R5bGU9InN0cm9rZTojMkY0RjRGO3N0cm9rZS13aWR0aDowLjU7Ii8+PHBhdGggZD0iTTYwMywzMjUuNSBMNjAzLDM1Mi41IE01OTAsMzMzLjUgTDYxNiwzMzMuNSBNNjAzLDM1Mi41IEw1OTAsMzY3LjUgTTYwMywzNTIuNSBMNjE2LDM2Ny41ICIgZmlsbD0ibm9uZSIgc3R5bGU9InN0cm9rZTojMkY0RjRGO3N0cm9rZS13aWR0aDowLjU7Ii8+PHRleHQgZmlsbD0iIzAwMDAwMCIgZm9udC1mYW1pbHk9InNhbnMtc2VyaWYiIGZvbnQtc2l6ZT0iMTQiIGxlbmd0aEFkanVzdD0ic3BhY2luZyIgdGV4dExlbmd0aD0iOTEiIHg9IjU1Ny41IiB5PSIzODIuMjM0NCI+QWlybGluZSBTdGFmZjwvdGV4dD48L2c+PCEtLWVudGl0eSBzZWN1cml0eVN0YWZmLS0+PGcgaWQ9ImVsZW1fc2VjdXJpdHlTdGFmZiI+PGVsbGlwc2UgY3g9IjE1ODQiIGN5PSI0OC41IiBmaWxsPSIjOTBFRTkwIiByeD0iOCIgcnk9IjgiIHN0eWxlPSJzdHJva2U6IzJGNEY0RjtzdHJva2Utd2lkdGg6MC41OyIvPjxwYXRoIGQ9Ik0xNTg0LDU2LjUgTDE1ODQsODMuNSBNMTU3MSw2NC41IEwxNTk3LDY0LjUgTTE1ODQsODMuNSBMMTU3MSw5OC41IE0xNTg0LDgzLjUgTDE1OTcsOTguNSAiIGZpbGw9Im5vbmUiIHN0eWxlPSJzdHJva2U6IzJGNEY0RjtzdHJva2Utd2lkdGg6MC41OyIvPjx0ZXh0IGZpbGw9IiMwMDAwMDAiIGZvbnQtZmFtaWx5PSJzYW5zLXNlcmlmIiBmb250LXNpemU9IjE0IiBsZW5ndGhBZGp1c3Q9InNwYWNpbmciIHRleHRMZW5ndGg9Ijk4IiB4PSIxNTM1IiB5PSIxMTMuMjM0NCI+U2VjdXJpdHkgU3RhZmY8L3RleHQ+PC9nPjwhLS1lbnRpdHkgdHJhbnNwb3J0YXRpb25Qcm92aWRlci0tPjxnIGlkPSJlbGVtX3RyYW5zcG9ydGF0aW9uUHJvdmlkZXIiPjxlbGxpcHNlIGN4PSIxMzM3IiBjeT0iNDguNSIgZmlsbD0iIzkwRUU5MCIgcng9IjgiIHJ5PSI4IiBzdHlsZT0ic3Ryb2tlOiMyRjRGNEY7c3Ryb2tlLXdpZHRoOjAuNTsiLz48cGF0aCBkPSJNMTMzNyw1Ni41IEwxMzM3LDgzLjUgTTEzMjQsNjQuNSBMMTM1MCw2NC41IE0xMzM3LDgzLjUgTDEzMjQsOTguNSBNMTMzNyw4My41IEwxMzUwLDk4LjUgIiBmaWxsPSJub25lIiBzdHlsZT0ic3Ryb2tlOiMyRjRGNEY7c3Ryb2tlLXdpZHRoOjAuNTsiLz48dGV4dCBmaWxsPSIjMDAwMDAwIiBmb250LWZhbWlseT0ic2Fucy1zZXJpZiIgZm9udC1zaXplPSIxNCIgbGVuZ3RoQWRqdXN0PSJzcGFjaW5nIiB0ZXh0TGVuZ3RoPSIyMTAiIHg9IjEyMzIiIHk9IjExMy4yMzQ0Ij5Hcm91bmQgVHJhbnNwb3J0YXRpb24gUHJvdmlkZXI8L3RleHQ+PC9nPjwhLS1lbnRpdHkgZHV0eUZyZWVWZW5kb3ItLT48ZyBpZD0iZWxlbV9kdXR5RnJlZVZlbmRvciI+PGVsbGlwc2UgY3g9IjE3NTQiIGN5PSI0OC41IiBmaWxsPSIjOTBFRTkwIiByeD0iOCIgcnk9IjgiIHN0eWxlPSJzdHJva2U6IzJGNEY0RjtzdHJva2Utd2lkdGg6MC41OyIvPjxwYXRoIGQ9Ik0xNzU0LDU2LjUgTDE3NTQsODMuNSBNMTc0MSw2NC41IEwxNzY3LDY0LjUgTTE3NTQsODMuNSBMMTc0MSw5OC41IE0xNzU0LDgzLjUgTDE3NjcsOTguNSAiIGZpbGw9Im5vbmUiIHN0eWxlPSJzdHJva2U6IzJGNEY0RjtzdHJva2Utd2lkdGg6MC41OyIvPjx0ZXh0IGZpbGw9IiMwMDAwMDAiIGZvbnQtZmFtaWx5PSJzYW5zLXNlcmlmIiBmb250LXNpemU9IjE0IiBsZW5ndGhBZGp1c3Q9InNwYWNpbmciIHRleHRMZW5ndGg9IjExMiIgeD0iMTY5OCIgeT0iMTEzLjIzNDQiPkR1dHkgRnJlZSBWZW5kb3I8L3RleHQ+PC9nPjwhLS1lbnRpdHkgc2VjdXJpdHlDaGVjay0tPjxnIGlkPSJlbGVtX3NlY3VyaXR5Q2hlY2siPjxyZWN0IGZpbGw9IiNFMEZGRkYiIGhlaWdodD0iMzQuOTg0NCIgcng9IjIuNSIgcnk9IjIuNSIgc3R5bGU9InN0cm9rZTojMkY0RjRGO3N0cm9rZS13aWR0aDowLjU7IiB3aWR0aD0iMTE4IiB4PSIxNTAzIiB5PSIxOTQuNSIvPjx0ZXh0IGZpbGw9IiMwMDAwMDAiIGZvbnQtZmFtaWx5PSJzYW5zLXNlcmlmIiBmb250LXNpemU9IjE0IiBsZW5ndGhBZGp1c3Q9InNwYWNpbmciIHRleHRMZW5ndGg9Ijk4IiB4PSIxNTEzIiB5PSIyMTcuNzM0NCI+U2VjdXJpdHkgQ2hlY2s8L3RleHQ+PC9nPjwhLS1lbnRpdHkgdHJhbnNwb3J0YXRpb25TZXJ2aWNlcy0tPjxnIGlkPSJlbGVtX3RyYW5zcG9ydGF0aW9uU2VydmljZXMiPjxyZWN0IGZpbGw9IiNFMEZGRkYiIGhlaWdodD0iMzQuOTg0NCIgcng9IjIuNSIgcnk9IjIuNSIgc3R5bGU9InN0cm9rZTojMkY0RjRGO3N0cm9rZS13aWR0aDowLjU7IiB3aWR0aD0iMjMwIiB4PSIxMjM4IiB5PSIxOTQuNSIvPjx0ZXh0IGZpbGw9IiMwMDAwMDAiIGZvbnQtZmFtaWx5PSJzYW5zLXNlcmlmIiBmb250LXNpemU9IjE0IiBsZW5ndGhBZGp1c3Q9InNwYWNpbmciIHRleHRMZW5ndGg9IjIxMCIgeD0iMTI0OCIgeT0iMjE3LjczNDQiPkdyb3VuZCBUcmFuc3BvcnRhdGlvbiBTZXJ2aWNlczwvdGV4dD48L2c+PCEtLWVudGl0eSBkdXR5RnJlZU1hbmFnZW1lbnQtLT48ZyBpZD0iZWxlbV9kdXR5RnJlZU1hbmFnZW1lbnQiPjxyZWN0IGZpbGw9IiNFMEZGRkYiIGhlaWdodD0iMzQuOTg0NCIgcng9IjIuNSIgcnk9IjIuNSIgc3R5bGU9InN0cm9rZTojMkY0RjRGO3N0cm9rZS13aWR0aDowLjU7IiB3aWR0aD0iMTk2IiB4PSIxNjU2IiB5PSIxOTQuNSIvPjx0ZXh0IGZpbGw9IiMwMDAwMDAiIGZvbnQtZmFtaWx5PSJzYW5zLXNlcmlmIiBmb250LXNpemU9IjE0IiBsZW5ndGhBZGp1c3Q9InNwYWNpbmciIHRleHRMZW5ndGg9IjE3NiIgeD0iMTY2NiIgeT0iMjE3LjczNDQiPkR1dHkgRnJlZSBTaG9wIE1hbmFnZW1lbnQ8L3RleHQ+PC9nPjwhLS1lbnRpdHkgYWlybGluZS0tPjxnIGlkPSJlbGVtX2FpcmxpbmUiPjxwYXRoIGQ9Ik0xODA3LjUsNjY1IEMxODA3LjUsNjU1IDE4NDIsNjU1IDE4NDIsNjU1IEMxODQyLDY1NSAxODc2LjUsNjU1IDE4NzYuNSw2NjUgTDE4NzYuNSw2ODguOTg0NCBDMTg3Ni41LDY5OC45ODQ0IDE4NDIsNjk4Ljk4NDQgMTg0Miw2OTguOTg0NCBDMTg0Miw2OTguOTg0NCAxODA3LjUsNjk4Ljk4NDQgMTgwNy41LDY4OC45ODQ0IEwxODA3LjUsNjY1ICIgZmlsbD0iIzg3Q0VGQSIgc3R5bGU9InN0cm9rZTojMkY0RjRGO3N0cm9rZS13aWR0aDowLjU7Ii8+PHBhdGggZD0iTTE4MDcuNSw2NjUgQzE4MDcuNSw2NzUgMTg0Miw2NzUgMTg0Miw2NzUgQzE4NDIsNjc1IDE4NzYuNSw2NzUgMTg3Ni41LDY2NSAiIGZpbGw9Im5vbmUiIHN0eWxlPSJzdHJva2U6IzJGNEY0RjtzdHJva2Utd2lkdGg6MC41OyIvPjx0ZXh0IGZpbGw9IiMwMDAwMDAiIGZvbnQtZmFtaWx5PSJzYW5zLXNlcmlmIiBmb250LXNpemU9IjE0IiBsZW5ndGhBZGp1c3Q9InNwYWNpbmciIHRleHRMZW5ndGg9IjQ5IiB4PSIxODE3LjUiIHk9IjY5Mi4yMzQ0Ij5BaXJsaW5lPC90ZXh0PjwvZz48IS0tZW50aXR5IGZsaWdodC0tPjxnIGlkPSJlbGVtX2ZsaWdodCI+PHBhdGggZD0iTTE1MjAsMzM0LjUgQzE1MjAsMzI0LjUgMTU1MSwzMjQuNSAxNTUxLDMyNC41IEMxNTUxLDMyNC41IDE1ODIsMzI0LjUgMTU4MiwzMzQuNSBMMTU4MiwzNTguNDg0NCBDMTU4MiwzNjguNDg0NCAxNTUxLDM2OC40ODQ0IDE1NTEsMzY4LjQ4NDQgQzE1NTEsMzY4LjQ4NDQgMTUyMCwzNjguNDg0NCAxNTIwLDM1OC40ODQ0IEwxNTIwLDMzNC41ICIgZmlsbD0iIzg3Q0VGQSIgc3R5bGU9InN0cm9rZTojMkY0RjRGO3N0cm9rZS13aWR0aDowLjU7Ii8+PHBhdGggZD0iTTE1MjAsMzM0LjUgQzE1MjAsMzQ0LjUgMTU1MSwzNDQuNSAxNTUxLDM0NC41IEMxNTUxLDM0NC41IDE1ODIsMzQ0LjUgMTU4MiwzMzQuNSAiIGZpbGw9Im5vbmUiIHN0eWxlPSJzdHJva2U6IzJGNEY0RjtzdHJva2Utd2lkdGg6MC41OyIvPjx0ZXh0IGZpbGw9IiMwMDAwMDAiIGZvbnQtZmFtaWx5PSJzYW5zLXNlcmlmIiBmb250LXNpemU9IjE0IiBsZW5ndGhBZGp1c3Q9InNwYWNpbmciIHRleHRMZW5ndGg9IjQyIiB4PSIxNTMwIiB5PSIzNjEuNzM0NCI+RmxpZ2h0PC90ZXh0PjwvZz48IS0tZW50aXR5IHRpY2tldC0tPjxnIGlkPSJlbGVtX3RpY2tldCI+PHBhdGggZD0iTTk1NSw1MjQuNSBDOTU1LDUxNC41IDk4Niw1MTQuNSA5ODYsNTE0LjUgQzk4Niw1MTQuNSAxMDE3LDUxNC41IDEwMTcsNTI0LjUgTDEwMTcsNTQ4LjQ4NDQgQzEwMTcsNTU4LjQ4NDQgOTg2LDU1OC40ODQ0IDk4Niw1NTguNDg0NCBDOTg2LDU1OC40ODQ0IDk1NSw1NTguNDg0NCA5NTUsNTQ4LjQ4NDQgTDk1NSw1MjQuNSAiIGZpbGw9IiM4N0NFRkEiIHN0eWxlPSJzdHJva2U6IzJGNEY0RjtzdHJva2Utd2lkdGg6MC41OyIvPjxwYXRoIGQ9Ik05NTUsNTI0LjUgQzk1NSw1MzQuNSA5ODYsNTM0LjUgOTg2LDUzNC41IEM5ODYsNTM0LjUgMTAxNyw1MzQuNSAxMDE3LDUyNC41ICIgZmlsbD0ibm9uZSIgc3R5bGU9InN0cm9rZTojMkY0RjRGO3N0cm9rZS13aWR0aDowLjU7Ii8+PHRleHQgZmlsbD0iIzAwMDAwMCIgZm9udC1mYW1pbHk9InNhbnMtc2VyaWYiIGZvbnQtc2l6ZT0iMTQiIGxlbmd0aEFkanVzdD0ic3BhY2luZyIgdGV4dExlbmd0aD0iNDIiIHg9Ijk2NSIgeT0iNTUxLjczNDQiPlRpY2tldDwvdGV4dD48L2c+PCEtLWVudGl0eSBwYXltZW50LS0+PGcgaWQ9ImVsZW1fcGF5bWVudCI+PHBhdGggZD0iTTc4OCw2NjUgQzc4OCw2NTUgODIzLDY1NSA4MjMsNjU1IEM4MjMsNjU1IDg1OCw2NTUgODU4LDY2NSBMODU4LDY4OC45ODQ0IEM4NTgsNjk4Ljk4NDQgODIzLDY5OC45ODQ0IDgyMyw2OTguOTg0NCBDODIzLDY5OC45ODQ0IDc4OCw2OTguOTg0NCA3ODgsNjg4Ljk4NDQgTDc4OCw2NjUgIiBmaWxsPSIjODdDRUZBIiBzdHlsZT0ic3Ryb2tlOiMyRjRGNEY7c3Ryb2tlLXdpZHRoOjAuNTsiLz48cGF0aCBkPSJNNzg4LDY2NSBDNzg4LDY3NSA4MjMsNjc1IDgyMyw2NzUgQzgyMyw2NzUgODU4LDY3NSA4NTgsNjY1ICIgZmlsbD0ibm9uZSIgc3R5bGU9InN0cm9rZTojMkY0RjRGO3N0cm9rZS13aWR0aDowLjU7Ii8+PHRleHQgZmlsbD0iIzAwMDAwMCIgZm9udC1mYW1pbHk9InNhbnMtc2VyaWYiIGZvbnQtc2l6ZT0iMTQiIGxlbmd0aEFkanVzdD0ic3BhY2luZyIgdGV4dExlbmd0aD0iNTAiIHg9Ijc5OCIgeT0iNjkyLjIzNDQiPlBheW1lbnQ8L3RleHQ+PC9nPjwhLS1lbnRpdHkgcGFzc2VuZ2VyVGFibGUtLT48ZyBpZD0iZWxlbV9wYXNzZW5nZXJUYWJsZSI+PHBhdGggZD0iTTg0Ny41LDY1LjUgQzg0Ny41LDU1LjUgODg5LDU1LjUgODg5LDU1LjUgQzg4OSw1NS41IDkzMC41LDU1LjUgOTMwLjUsNjUuNSBMOTMwLjUsODkuNDg0NCBDOTMwLjUsOTkuNDg0NCA4ODksOTkuNDg0NCA4ODksOTkuNDg0NCBDODg5LDk5LjQ4NDQgODQ3LjUsOTkuNDg0NCA4NDcuNSw4OS40ODQ0IEw4NDcuNSw2NS41ICIgZmlsbD0iIzg3Q0VGQSIgc3R5bGU9InN0cm9rZTojMkY0RjRGO3N0cm9rZS13aWR0aDowLjU7Ii8+PHBhdGggZD0iTTg0Ny41LDY1LjUgQzg0Ny41LDc1LjUgODg5LDc1LjUgODg5LDc1LjUgQzg4OSw3NS41IDkzMC41LDc1LjUgOTMwLjUsNjUuNSAiIGZpbGw9Im5vbmUiIHN0eWxlPSJzdHJva2U6IzJGNEY0RjtzdHJva2Utd2lkdGg6MC41OyIvPjx0ZXh0IGZpbGw9IiMwMDAwMDAiIGZvbnQtZmFtaWx5PSJzYW5zLXNlcmlmIiBmb250LXNpemU9IjE0IiBsZW5ndGhBZGp1c3Q9InNwYWNpbmciIHRleHRMZW5ndGg9IjYzIiB4PSI4NTcuNSIgeT0iOTIuNzM0NCI+UGFzc2VuZ2VyPC90ZXh0PjwvZz48IS0tZW50aXR5IGVtcGxveWVlLS0+PGcgaWQ9ImVsZW1fZW1wbG95ZWUiPjxwYXRoIGQ9Ik0xNjcyLjUsNTI0LjUgQzE2NzIuNSw1MTQuNSAxNzExLDUxNC41IDE3MTEsNTE0LjUgQzE3MTEsNTE0LjUgMTc0OS41LDUxNC41IDE3NDkuNSw1MjQuNSBMMTc0OS41LDU0OC40ODQ0IEMxNzQ5LjUsNTU4LjQ4NDQgMTcxMSw1NTguNDg0NCAxNzExLDU1OC40ODQ0IEMxNzExLDU1OC40ODQ0IDE2NzIuNSw1NTguNDg0NCAxNjcyLjUsNTQ4LjQ4NDQgTDE2NzIuNSw1MjQuNSAiIGZpbGw9IiM4N0NFRkEiIHN0eWxlPSJzdHJva2U6IzJGNEY0RjtzdHJva2Utd2lkdGg6MC41OyIvPjxwYXRoIGQ9Ik0xNjcyLjUsNTI0LjUgQzE2NzIuNSw1MzQuNSAxNzExLDUzNC41IDE3MTEsNTM0LjUgQzE3MTEsNTM0LjUgMTc0OS41LDUzNC41IDE3NDkuNSw1MjQuNSAiIGZpbGw9Im5vbmUiIHN0eWxlPSJzdHJva2U6IzJGNEY0RjtzdHJva2Utd2lkdGg6MC41OyIvPjx0ZXh0IGZpbGw9IiMwMDAwMDAiIGZvbnQtZmFtaWx5PSJzYW5zLXNlcmlmIiBmb250LXNpemU9IjE0IiBsZW5ndGhBZGp1c3Q9InNwYWNpbmciIHRleHRMZW5ndGg9IjU3IiB4PSIxNjgyLjUiIHk9IjU1MS43MzQ0Ij5FbXBsb3llZTwvdGV4dD48L2c+PCEtLWVudGl0eSBmbGlnaHRBdHRlbmRhbnQtLT48ZyBpZD0iZWxlbV9mbGlnaHRBdHRlbmRhbnQiPjxwYXRoIGQ9Ik0xODg3LDIwMCBDMTg4NywxOTAgMTk1MywxOTAgMTk1MywxOTAgQzE5NTMsMTkwIDIwMTksMTkwIDIwMTksMjAwIEwyMDE5LDIyMy45ODQ0IEMyMDE5LDIzMy45ODQ0IDE5NTMsMjMzLjk4NDQgMTk1MywyMzMuOTg0NCBDMTk1MywyMzMuOTg0NCAxODg3LDIzMy45ODQ0IDE4ODcsMjIzLjk4NDQgTDE4ODcsMjAwICIgZmlsbD0iIzg3Q0VGQSIgc3R5bGU9InN0cm9rZTojMkY0RjRGO3N0cm9rZS13aWR0aDowLjU7Ii8+PHBhdGggZD0iTTE4ODcsMjAwIEMxODg3LDIxMCAxOTUzLDIxMCAxOTUzLDIxMCBDMTk1MywyMTAgMjAxOSwyMTAgMjAxOSwyMDAgIiBmaWxsPSJub25lIiBzdHlsZT0ic3Ryb2tlOiMyRjRGNEY7c3Ryb2tlLXdpZHRoOjAuNTsiLz48dGV4dCBmaWxsPSIjMDAwMDAwIiBmb250LWZhbWlseT0ic2Fucy1zZXJpZiIgZm9udC1zaXplPSIxNCIgbGVuZ3RoQWRqdXN0PSJzcGFjaW5nIiB0ZXh0TGVuZ3RoPSIxMTIiIHg9IjE4OTciIHk9IjIyNy4yMzQ0Ij5GbGlnaHQgQXR0ZW5kYW50PC90ZXh0PjwvZz48IS0tZW50aXR5IGJhZ2dhZ2UtLT48ZyBpZD0iZWxlbV9iYWdnYWdlIj48cGF0aCBkPSJNNTU0LjUsNjY1IEM1NTQuNSw2NTUgNTg5LDY1NSA1ODksNjU1IEM1ODksNjU1IDYyMy41LDY1NSA2MjMuNSw2NjUgTDYyMy41LDY4OC45ODQ0IEM2MjMuNSw2OTguOTg0NCA1ODksNjk4Ljk4NDQgNTg5LDY5OC45ODQ0IEM1ODksNjk4Ljk4NDQgNTU0LjUsNjk4Ljk4NDQgNTU0LjUsNjg4Ljk4NDQgTDU1NC41LDY2NSAiIGZpbGw9IiM4N0NFRkEiIHN0eWxlPSJzdHJva2U6IzJGNEY0RjtzdHJva2Utd2lkdGg6MC41OyIvPjxwYXRoIGQ9Ik01NTQuNSw2NjUgQzU1NC41LDY3NSA1ODksNjc1IDU4OSw2NzUgQzU4OSw2NzUgNjIzLjUsNjc1IDYyMy41LDY2NSAiIGZpbGw9Im5vbmUiIHN0eWxlPSJzdHJva2U6IzJGNEY0RjtzdHJva2Utd2lkdGg6MC41OyIvPjx0ZXh0IGZpbGw9IiMwMDAwMDAiIGZvbnQtZmFtaWx5PSJzYW5zLXNlcmlmIiBmb250LXNpemU9IjE0IiBsZW5ndGhBZGp1c3Q9InNwYWNpbmciIHRleHRMZW5ndGg9IjQ5IiB4PSI1NjQuNSIgeT0iNjkyLjIzNDQiPkJhZ2dhZ2U8L3RleHQ+PC9nPjwhLS1lbnRpdHkgbG9zdEFuZEZvdW5kLS0+PGcgaWQ9ImVsZW1fbG9zdEFuZEZvdW5kIj48cGF0aCBkPSJNNzk4LDc4NCBDNzk4LDc3NCA4NTcsNzc0IDg1Nyw3NzQgQzg1Nyw3NzQgOTE2LDc3NCA5MTYsNzg0IEw5MTYsODA3Ljk4NDQgQzkxNiw4MTcuOTg0NCA4NTcsODE3Ljk4NDQgODU3LDgxNy45ODQ0IEM4NTcsODE3Ljk4NDQgNzk4LDgxNy45ODQ0IDc5OCw4MDcuOTg0NCBMNzk4LDc4NCAiIGZpbGw9IiM4N0NFRkEiIHN0eWxlPSJzdHJva2U6IzJGNEY0RjtzdHJva2Utd2lkdGg6MC41OyIvPjxwYXRoIGQ9Ik03OTgsNzg0IEM3OTgsNzk0IDg1Nyw3OTQgODU3LDc5NCBDODU3LDc5NCA5MTYsNzk0IDkxNiw3ODQgIiBmaWxsPSJub25lIiBzdHlsZT0ic3Ryb2tlOiMyRjRGNEY7c3Ryb2tlLXdpZHRoOjAuNTsiLz48dGV4dCBmaWxsPSIjMDAwMDAwIiBmb250LWZhbWlseT0ic2Fucy1zZXJpZiIgZm9udC1zaXplPSIxNCIgbGVuZ3RoQWRqdXN0PSJzcGFjaW5nIiB0ZXh0TGVuZ3RoPSI5OCIgeD0iODA4IiB5PSI4MTEuMjM0NCI+TG9zdCBhbmQgRm91bmQ8L3RleHQ+PC9nPjwhLS1lbnRpdHkgY2l0eS0tPjxnIGlkPSJlbGVtX2NpdHkiPjxwYXRoIGQ9Ik0xNzg1LDUyNC41IEMxNzg1LDUxNC41IDE4MDksNTE0LjUgMTgwOSw1MTQuNSBDMTgwOSw1MTQuNSAxODMzLDUxNC41IDE4MzMsNTI0LjUgTDE4MzMsNTQ4LjQ4NDQgQzE4MzMsNTU4LjQ4NDQgMTgwOSw1NTguNDg0NCAxODA5LDU1OC40ODQ0IEMxODA5LDU1OC40ODQ0IDE3ODUsNTU4LjQ4NDQgMTc4NSw1NDguNDg0NCBMMTc4NSw1MjQuNSAiIGZpbGw9IiM4N0NFRkEiIHN0eWxlPSJzdHJva2U6IzJGNEY0RjtzdHJva2Utd2lkdGg6MC41OyIvPjxwYXRoIGQ9Ik0xNzg1LDUyNC41IEMxNzg1LDUzNC41IDE4MDksNTM0LjUgMTgwOSw1MzQuNSBDMTgwOSw1MzQuNSAxODMzLDUzNC41IDE4MzMsNTI0LjUgIiBmaWxsPSJub25lIiBzdHlsZT0ic3Ryb2tlOiMyRjRGNEY7c3Ryb2tlLXdpZHRoOjAuNTsiLz48dGV4dCBmaWxsPSIjMDAwMDAwIiBmb250LWZhbWlseT0ic2Fucy1zZXJpZiIgZm9udC1zaXplPSIxNCIgbGVuZ3RoQWRqdXN0PSJzcGFjaW5nIiB0ZXh0TGVuZ3RoPSIyOCIgeD0iMTc5NSIgeT0iNTUxLjczNDQiPkNpdHk8L3RleHQ+PC9nPjwhLS1lbnRpdHkgYWlycG9ydFRhYmxlLS0+PGcgaWQ9ImVsZW1fYWlycG9ydFRhYmxlIj48cGF0aCBkPSJNMTI4My41LDY2NSBDMTI4My41LDY1NSAxMzE4LDY1NSAxMzE4LDY1NSBDMTMxOCw2NTUgMTM1Mi41LDY1NSAxMzUyLjUsNjY1IEwxMzUyLjUsNjg4Ljk4NDQgQzEzNTIuNSw2OTguOTg0NCAxMzE4LDY5OC45ODQ0IDEzMTgsNjk4Ljk4NDQgQzEzMTgsNjk4Ljk4NDQgMTI4My41LDY5OC45ODQ0IDEyODMuNSw2ODguOTg0NCBMMTI4My41LDY2NSAiIGZpbGw9IiM4N0NFRkEiIHN0eWxlPSJzdHJva2U6IzJGNEY0RjtzdHJva2Utd2lkdGg6MC41OyIvPjxwYXRoIGQ9Ik0xMjgzLjUsNjY1IEMxMjgzLjUsNjc1IDEzMTgsNjc1IDEzMTgsNjc1IEMxMzE4LDY3NSAxMzUyLjUsNjc1IDEzNTIuNSw2NjUgIiBmaWxsPSJub25lIiBzdHlsZT0ic3Ryb2tlOiMyRjRGNEY7c3Ryb2tlLXdpZHRoOjAuNTsiLz48dGV4dCBmaWxsPSIjMDAwMDAwIiBmb250LWZhbWlseT0ic2Fucy1zZXJpZiIgZm9udC1zaXplPSIxNCIgbGVuZ3RoQWRqdXN0PSJzcGFjaW5nIiB0ZXh0TGVuZ3RoPSI0OSIgeD0iMTI5My41IiB5PSI2OTIuMjM0NCI+QWlycG9ydDwvdGV4dD48L2c+PCEtLWVudGl0eSBoYW5nYXItLT48ZyBpZD0iZWxlbV9oYW5nYXIiPjxwYXRoIGQ9Ik0xMDg5LDUyNC41IEMxMDg5LDUxNC41IDExMjAsNTE0LjUgMTEyMCw1MTQuNSBDMTEyMCw1MTQuNSAxMTUxLDUxNC41IDExNTEsNTI0LjUgTDExNTEsNTQ4LjQ4NDQgQzExNTEsNTU4LjQ4NDQgMTEyMCw1NTguNDg0NCAxMTIwLDU1OC40ODQ0IEMxMTIwLDU1OC40ODQ0IDEwODksNTU4LjQ4NDQgMTA4OSw1NDguNDg0NCBMMTA4OSw1MjQuNSAiIGZpbGw9IiM4N0NFRkEiIHN0eWxlPSJzdHJva2U6IzJGNEY0RjtzdHJva2Utd2lkdGg6MC41OyIvPjxwYXRoIGQ9Ik0xMDg5LDUyNC41IEMxMDg5LDUzNC41IDExMjAsNTM0LjUgMTEyMCw1MzQuNSBDMTEyMCw1MzQuNSAxMTUxLDUzNC41IDExNTEsNTI0LjUgIiBmaWxsPSJub25lIiBzdHlsZT0ic3Ryb2tlOiMyRjRGNEY7c3Ryb2tlLXdpZHRoOjAuNTsiLz48dGV4dCBmaWxsPSIjMDAwMDAwIiBmb250LWZhbWlseT0ic2Fucy1zZXJpZiIgZm9udC1zaXplPSIxNCIgbGVuZ3RoQWRqdXN0PSJzcGFjaW5nIiB0ZXh0TGVuZ3RoPSI0MiIgeD0iMTA5OSIgeT0iNTUxLjczNDQiPkhhbmdhcjwvdGV4dD48L2c+PCEtLWVudGl0eSBhaXJwbGFuZS0tPjxnIGlkPSJlbGVtX2FpcnBsYW5lIj48cGF0aCBkPSJNMTQyOCw1MjQuNSBDMTQyOCw1MTQuNSAxNDY2LDUxNC41IDE0NjYsNTE0LjUgQzE0NjYsNTE0LjUgMTUwNCw1MTQuNSAxNTA0LDUyNC41IEwxNTA0LDU0OC40ODQ0IEMxNTA0LDU1OC40ODQ0IDE0NjYsNTU4LjQ4NDQgMTQ2Niw1NTguNDg0NCBDMTQ2Niw1NTguNDg0NCAxNDI4LDU1OC40ODQ0IDE0MjgsNTQ4LjQ4NDQgTDE0MjgsNTI0LjUgIiBmaWxsPSIjODdDRUZBIiBzdHlsZT0ic3Ryb2tlOiMyRjRGNEY7c3Ryb2tlLXdpZHRoOjAuNTsiLz48cGF0aCBkPSJNMTQyOCw1MjQuNSBDMTQyOCw1MzQuNSAxNDY2LDUzNC41IDE0NjYsNTM0LjUgQzE0NjYsNTM0LjUgMTUwNCw1MzQuNSAxNTA0LDUyNC41ICIgZmlsbD0ibm9uZSIgc3R5bGU9InN0cm9rZTojMkY0RjRGO3N0cm9rZS13aWR0aDowLjU7Ii8+PHRleHQgZmlsbD0iIzAwMDAwMCIgZm9udC1mYW1pbHk9InNhbnMtc2VyaWYiIGZvbnQtc2l6ZT0iMTQiIGxlbmd0aEFkanVzdD0ic3BhY2luZyIgdGV4dExlbmd0aD0iNTYiIHg9IjE0MzgiIHk9IjU1MS43MzQ0Ij5BaXJwbGFuZTwvdGV4dD48L2c+PCEtLWVudGl0eSBjbGFzcy0tPjxnIGlkPSJlbGVtX2NsYXNzIj48cGF0aCBkPSJNOTM3LjUsNjY1IEM5MzcuNSw2NTUgOTY1LDY1NSA5NjUsNjU1IEM5NjUsNjU1IDk5Mi41LDY1NSA5OTIuNSw2NjUgTDk5Mi41LDY4OC45ODQ0IEM5OTIuNSw2OTguOTg0NCA5NjUsNjk4Ljk4NDQgOTY1LDY5OC45ODQ0IEM5NjUsNjk4Ljk4NDQgOTM3LjUsNjk4Ljk4NDQgOTM3LjUsNjg4Ljk4NDQgTDkzNy41LDY2NSAiIGZpbGw9IiM4N0NFRkEiIHN0eWxlPSJzdHJva2U6IzJGNEY0RjtzdHJva2Utd2lkdGg6MC41OyIvPjxwYXRoIGQ9Ik05MzcuNSw2NjUgQzkzNy41LDY3NSA5NjUsNjc1IDk2NSw2NzUgQzk2NSw2NzUgOTkyLjUsNjc1IDk5Mi41LDY2NSAiIGZpbGw9Im5vbmUiIHN0eWxlPSJzdHJva2U6IzJGNEY0RjtzdHJva2Utd2lkdGg6MC41OyIvPjx0ZXh0IGZpbGw9IiMwMDAwMDAiIGZvbnQtZmFtaWx5PSJzYW5zLXNlcmlmIiBmb250LXNpemU9IjE0IiBsZW5ndGhBZGp1c3Q9InNwYWNpbmciIHRleHRMZW5ndGg9IjM1IiB4PSI5NDcuNSIgeT0iNjkyLjIzNDQiPkNsYXNzPC90ZXh0PjwvZz48IS0tZW50aXR5IGdyb3VuZFRyYW5zcG9ydGF0aW9uLS0+PGcgaWQ9ImVsZW1fZ3JvdW5kVHJhbnNwb3J0YXRpb24iPjxwYXRoIGQ9Ik05MjQuNSwyMDAgQzkyNC41LDE5MCAxMDA4LDE5MCAxMDA4LDE5MCBDMTAwOCwxOTAgMTA5MS41LDE5MCAxMDkxLjUsMjAwIEwxMDkxLjUsMjIzLjk4NDQgQzEwOTEuNSwyMzMuOTg0NCAxMDA4LDIzMy45ODQ0IDEwMDgsMjMzLjk4NDQgQzEwMDgsMjMzLjk4NDQgOTI0LjUsMjMzLjk4NDQgOTI0LjUsMjIzLjk4NDQgTDkyNC41LDIwMCAiIGZpbGw9IiM4N0NFRkEiIHN0eWxlPSJzdHJva2U6IzJGNEY0RjtzdHJva2Utd2lkdGg6MC41OyIvPjxwYXRoIGQ9Ik05MjQuNSwyMDAgQzkyNC41LDIxMCAxMDA4LDIxMCAxMDA4LDIxMCBDMTAwOCwyMTAgMTA5MS41LDIxMCAxMDkxLjUsMjAwICIgZmlsbD0ibm9uZSIgc3R5bGU9InN0cm9rZTojMkY0RjRGO3N0cm9rZS13aWR0aDowLjU7Ii8+PHRleHQgZmlsbD0iIzAwMDAwMCIgZm9udC1mYW1pbHk9InNhbnMtc2VyaWYiIGZvbnQtc2l6ZT0iMTQiIGxlbmd0aEFkanVzdD0ic3BhY2luZyIgdGV4dExlbmd0aD0iMTQ3IiB4PSI5MzQuNSIgeT0iMjI3LjIzNDQiPkdyb3VuZCBUcmFuc3BvcnRhdGlvbjwvdGV4dD48L2c+PCEtLWVudGl0eSBiYWdnYWdlU3RhZmYtLT48ZyBpZD0iZWxlbV9iYWdnYWdlU3RhZmYiPjxwYXRoIGQ9Ik04MDguNSw1MjQuNSBDODA4LjUsNTE0LjUgODY0LDUxNC41IDg2NCw1MTQuNSBDODY0LDUxNC41IDkxOS41LDUxNC41IDkxOS41LDUyNC41IEw5MTkuNSw1NDguNDg0NCBDOTE5LjUsNTU4LjQ4NDQgODY0LDU1OC40ODQ0IDg2NCw1NTguNDg0NCBDODY0LDU1OC40ODQ0IDgwOC41LDU1OC40ODQ0IDgwOC41LDU0OC40ODQ0IEw4MDguNSw1MjQuNSAiIGZpbGw9IiM4N0NFRkEiIHN0eWxlPSJzdHJva2U6IzJGNEY0RjtzdHJva2Utd2lkdGg6MC41OyIvPjxwYXRoIGQ9Ik04MDguNSw1MjQuNSBDODA4LjUsNTM0LjUgODY0LDUzNC41IDg2NCw1MzQuNSBDODY0LDUzNC41IDkxOS41LDUzNC41IDkxOS41LDUyNC41ICIgZmlsbD0ibm9uZSIgc3R5bGU9InN0cm9rZTojMkY0RjRGO3N0cm9rZS13aWR0aDowLjU7Ii8+PHRleHQgZmlsbD0iIzAwMDAwMCIgZm9udC1mYW1pbHk9InNhbnMtc2VyaWYiIGZvbnQtc2l6ZT0iMTQiIGxlbmd0aEFkanVzdD0ic3BhY2luZyIgdGV4dExlbmd0aD0iOTEiIHg9IjgxOC41IiB5PSI1NTEuNzM0NCI+QmFnZ2FnZSBTdGFmZjwvdGV4dD48L2c+PCEtLWVudGl0eSBzZWN1cml0eVBvaW50LS0+PGcgaWQ9ImVsZW1fc2VjdXJpdHlQb2ludCI+PHBhdGggZD0iTTQ3Nyw2NS41IEM0NzcsNTUuNSA1MzYsNTUuNSA1MzYsNTUuNSBDNTM2LDU1LjUgNTk1LDU1LjUgNTk1LDY1LjUgTDU5NSw4OS40ODQ0IEM1OTUsOTkuNDg0NCA1MzYsOTkuNDg0NCA1MzYsOTkuNDg0NCBDNTM2LDk5LjQ4NDQgNDc3LDk5LjQ4NDQgNDc3LDg5LjQ4NDQgTDQ3Nyw2NS41ICIgZmlsbD0iIzg3Q0VGQSIgc3R5bGU9InN0cm9rZTojMkY0RjRGO3N0cm9rZS13aWR0aDowLjU7Ii8+PHBhdGggZD0iTTQ3Nyw2NS41IEM0NzcsNzUuNSA1MzYsNzUuNSA1MzYsNzUuNSBDNTM2LDc1LjUgNTk1LDc1LjUgNTk1LDY1LjUgIiBmaWxsPSJub25lIiBzdHlsZT0ic3Ryb2tlOiMyRjRGNEY7c3Ryb2tlLXdpZHRoOjAuNTsiLz48dGV4dCBmaWxsPSIjMDAwMDAwIiBmb250LWZhbWlseT0ic2Fucy1zZXJpZiIgZm9udC1zaXplPSIxNCIgbGVuZ3RoQWRqdXN0PSJzcGFjaW5nIiB0ZXh0TGVuZ3RoPSI5OCIgeD0iNDg3IiB5PSI5Mi43MzQ0Ij5TZWN1cml0eSBQb2ludDwvdGV4dD48L2c+PCEtLWVudGl0eSBzZWN1cml0eVN0YWZmVGFibGUtLT48ZyBpZD0iZWxlbV9zZWN1cml0eVN0YWZmVGFibGUiPjxwYXRoIGQ9Ik0zMzgsMjAwIEMzMzgsMTkwIDM5NywxOTAgMzk3LDE5MCBDMzk3LDE5MCA0NTYsMTkwIDQ1NiwyMDAgTDQ1NiwyMjMuOTg0NCBDNDU2LDIzMy45ODQ0IDM5NywyMzMuOTg0NCAzOTcsMjMzLjk4NDQgQzM5NywyMzMuOTg0NCAzMzgsMjMzLjk4NDQgMzM4LDIyMy45ODQ0IEwzMzgsMjAwICIgZmlsbD0iIzg3Q0VGQSIgc3R5bGU9InN0cm9rZTojMkY0RjRGO3N0cm9rZS13aWR0aDowLjU7Ii8+PHBhdGggZD0iTTMzOCwyMDAgQzMzOCwyMTAgMzk3LDIxMCAzOTcsMjEwIEMzOTcsMjEwIDQ1NiwyMTAgNDU2LDIwMCAiIGZpbGw9Im5vbmUiIHN0eWxlPSJzdHJva2U6IzJGNEY0RjtzdHJva2Utd2lkdGg6MC41OyIvPjx0ZXh0IGZpbGw9IiMwMDAwMDAiIGZvbnQtZmFtaWx5PSJzYW5zLXNlcmlmIiBmb250LXNpemU9IjE0IiBsZW5ndGhBZGp1c3Q9InNwYWNpbmciIHRleHRMZW5ndGg9Ijk4IiB4PSIzNDgiIHk9IjIyNy4yMzQ0Ij5TZWN1cml0eSBTdGFmZjwvdGV4dD48L2c+PCEtLWVudGl0eSBzdXBlcnZpc29yLS0+PGcgaWQ9ImVsZW1fc3VwZXJ2aXNvciI+PHBhdGggZD0iTTE0NCw2NS41IEMxNDQsNTUuNSAxODksNTUuNSAxODksNTUuNSBDMTg5LDU1LjUgMjM0LDU1LjUgMjM0LDY1LjUgTDIzNCw4OS40ODQ0IEMyMzQsOTkuNDg0NCAxODksOTkuNDg0NCAxODksOTkuNDg0NCBDMTg5LDk5LjQ4NDQgMTQ0LDk5LjQ4NDQgMTQ0LDg5LjQ4NDQgTDE0NCw2NS41ICIgZmlsbD0iIzg3Q0VGQSIgc3R5bGU9InN0cm9rZTojMkY0RjRGO3N0cm9rZS13aWR0aDowLjU7Ii8+PHBhdGggZD0iTTE0NCw2NS41IEMxNDQsNzUuNSAxODksNzUuNSAxODksNzUuNSBDMTg5LDc1LjUgMjM0LDc1LjUgMjM0LDY1LjUgIiBmaWxsPSJub25lIiBzdHlsZT0ic3Ryb2tlOiMyRjRGNEY7c3Ryb2tlLXdpZHRoOjAuNTsiLz48dGV4dCBmaWxsPSIjMDAwMDAwIiBmb250LWZhbWlseT0ic2Fucy1zZXJpZiIgZm9udC1zaXplPSIxNCIgbGVuZ3RoQWRqdXN0PSJzcGFjaW5nIiB0ZXh0TGVuZ3RoPSI3MCIgeD0iMTU0IiB5PSI5Mi43MzQ0Ij5TdXBlcnZpc29yPC90ZXh0PjwvZz48IS0tZW50aXR5IHBhc3NlbmdlckxvdW5nZS0tPjxnIGlkPSJlbGVtX3Bhc3NlbmdlckxvdW5nZSI+PHBhdGggZD0iTTY0MiwyMDAgQzY0MiwxOTAgNzA4LDE5MCA3MDgsMTkwIEM3MDgsMTkwIDc3NCwxOTAgNzc0LDIwMCBMNzc0LDIyMy45ODQ0IEM3NzQsMjMzLjk4NDQgNzA4LDIzMy45ODQ0IDcwOCwyMzMuOTg0NCBDNzA4LDIzMy45ODQ0IDY0MiwyMzMuOTg0NCA2NDIsMjIzLjk4NDQgTDY0MiwyMDAgIiBmaWxsPSIjODdDRUZBIiBzdHlsZT0ic3Ryb2tlOiMyRjRGNEY7c3Ryb2tlLXdpZHRoOjAuNTsiLz48cGF0aCBkPSJNNjQyLDIwMCBDNjQyLDIxMCA3MDgsMjEwIDcwOCwyMTAgQzcwOCwyMTAgNzc0LDIxMCA3NzQsMjAwICIgZmlsbD0ibm9uZSIgc3R5bGU9InN0cm9rZTojMkY0RjRGO3N0cm9rZS13aWR0aDowLjU7Ii8+PHRleHQgZmlsbD0iIzAwMDAwMCIgZm9udC1mYW1pbHk9InNhbnMtc2VyaWYiIGZvbnQtc2l6ZT0iMTQiIGxlbmd0aEFkanVzdD0ic3BhY2luZyIgdGV4dExlbmd0aD0iMTEyIiB4PSI2NTIiIHk9IjIyNy4yMzQ0Ij5QYXNzZW5nZXIgTG91bmdlPC90ZXh0PjwvZz48IS0tZW50aXR5IHZlbmRvci0tPjxnIGlkPSJlbGVtX3ZlbmRvciI+PHBhdGggZD0iTTM3LDY1LjUgQzM3LDU1LjUgNjgsNTUuNSA2OCw1NS41IEM2OCw1NS41IDk5LDU1LjUgOTksNjUuNSBMOTksODkuNDg0NCBDOTksOTkuNDg0NCA2OCw5OS40ODQ0IDY4LDk5LjQ4NDQgQzY4LDk5LjQ4NDQgMzcsOTkuNDg0NCAzNyw4OS40ODQ0IEwzNyw2NS41ICIgZmlsbD0iIzg3Q0VGQSIgc3R5bGU9InN0cm9rZTojMkY0RjRGO3N0cm9rZS13aWR0aDowLjU7Ii8+PHBhdGggZD0iTTM3LDY1LjUgQzM3LDc1LjUgNjgsNzUuNSA2OCw3NS41IEM2OCw3NS41IDk5LDc1LjUgOTksNjUuNSAiIGZpbGw9Im5vbmUiIHN0eWxlPSJzdHJva2U6IzJGNEY0RjtzdHJva2Utd2lkdGg6MC41OyIvPjx0ZXh0IGZpbGw9IiMwMDAwMDAiIGZvbnQtZmFtaWx5PSJzYW5zLXNlcmlmIiBmb250LXNpemU9IjE0IiBsZW5ndGhBZGp1c3Q9InNwYWNpbmciIHRleHRMZW5ndGg9IjQyIiB4PSI0NyIgeT0iOTIuNzM0NCI+VmVuZG9yPC90ZXh0PjwvZz48IS0tZW50aXR5IGR1dHlGcmVlUHJvZHVjdC0tPjxnIGlkPSJlbGVtX2R1dHlGcmVlUHJvZHVjdCI+PHBhdGggZD0iTTIzLjUsMjAwIEMyMy41LDE5MCA5MywxOTAgOTMsMTkwIEM5MywxOTAgMTYyLjUsMTkwIDE2Mi41LDIwMCBMMTYyLjUsMjIzLjk4NDQgQzE2Mi41LDIzMy45ODQ0IDkzLDIzMy45ODQ0IDkzLDIzMy45ODQ0IEM5MywyMzMuOTg0NCAyMy41LDIzMy45ODQ0IDIzLjUsMjIzLjk4NDQgTDIzLjUsMjAwICIgZmlsbD0iIzg3Q0VGQSIgc3R5bGU9InN0cm9rZTojMkY0RjRGO3N0cm9rZS13aWR0aDowLjU7Ii8+PHBhdGggZD0iTTIzLjUsMjAwIEMyMy41LDIxMCA5MywyMTAgOTMsMjEwIEM5MywyMTAgMTYyLjUsMjEwIDE2Mi41LDIwMCAiIGZpbGw9Im5vbmUiIHN0eWxlPSJzdHJva2U6IzJGNEY0RjtzdHJva2Utd2lkdGg6MC41OyIvPjx0ZXh0IGZpbGw9IiMwMDAwMDAiIGZvbnQtZmFtaWx5PSJzYW5zLXNlcmlmIiBmb250LXNpemU9IjE0IiBsZW5ndGhBZGp1c3Q9InNwYWNpbmciIHRleHRMZW5ndGg9IjExOSIgeD0iMzMuNSIgeT0iMjI3LjIzNDQiPkR1dHkgRnJlZSBQcm9kdWN0PC90ZXh0PjwvZz48IS0tZW50aXR5IHB1cmNoYXNlLS0+PGcgaWQ9ImVsZW1fcHVyY2hhc2UiPjxwYXRoIGQ9Ik0xMTI3LDIwMCBDMTEyNywxOTAgMTE2NSwxOTAgMTE2NSwxOTAgQzExNjUsMTkwIDEyMDMsMTkwIDEyMDMsMjAwIEwxMjAzLDIyMy45ODQ0IEMxMjAzLDIzMy45ODQ0IDExNjUsMjMzLjk4NDQgMTE2NSwyMzMuOTg0NCBDMTE2NSwyMzMuOTg0NCAxMTI3LDIzMy45ODQ0IDExMjcsMjIzLjk4NDQgTDExMjcsMjAwICIgZmlsbD0iIzg3Q0VGQSIgc3R5bGU9InN0cm9rZTojMkY0RjRGO3N0cm9rZS13aWR0aDowLjU7Ii8+PHBhdGggZD0iTTExMjcsMjAwIEMxMTI3LDIxMCAxMTY1LDIxMCAxMTY1LDIxMCBDMTE2NSwyMTAgMTIwMywyMTAgMTIwMywyMDAgIiBmaWxsPSJub25lIiBzdHlsZT0ic3Ryb2tlOiMyRjRGNEY7c3Ryb2tlLXdpZHRoOjAuNTsiLz48dGV4dCBmaWxsPSIjMDAwMDAwIiBmb250LWZhbWlseT0ic2Fucy1zZXJpZiIgZm9udC1zaXplPSIxNCIgbGVuZ3RoQWRqdXN0PSJzcGFjaW5nIiB0ZXh0TGVuZ3RoPSI1NiIgeD0iMTEzNyIgeT0iMjI3LjIzNDQiPlB1cmNoYXNlPC90ZXh0PjwvZz48IS0tZW50aXR5IHJ1bndheURhdGEtLT48ZyBpZD0iZWxlbV9ydW53YXlEYXRhIj48cGF0aCBkPSJNMTUzOSw1MjQuNSBDMTUzOSw1MTQuNSAxNTg4LDUxNC41IDE1ODgsNTE0LjUgQzE1ODgsNTE0LjUgMTYzNyw1MTQuNSAxNjM3LDUyNC41IEwxNjM3LDU0OC40ODQ0IEMxNjM3LDU1OC40ODQ0IDE1ODgsNTU4LjQ4NDQgMTU4OCw1NTguNDg0NCBDMTU4OCw1NTguNDg0NCAxNTM5LDU1OC40ODQ0IDE1MzksNTQ4LjQ4NDQgTDE1MzksNTI0LjUgIiBmaWxsPSIjODdDRUZBIiBzdHlsZT0ic3Ryb2tlOiMyRjRGNEY7c3Ryb2tlLXdpZHRoOjAuNTsiLz48cGF0aCBkPSJNMTUzOSw1MjQuNSBDMTUzOSw1MzQuNSAxNTg4LDUzNC41IDE1ODgsNTM0LjUgQzE1ODgsNTM0LjUgMTYzNyw1MzQuNSAxNjM3LDUyNC41ICIgZmlsbD0ibm9uZSIgc3R5bGU9InN0cm9rZTojMkY0RjRGO3N0cm9rZS13aWR0aDowLjU7Ii8+PHRleHQgZmlsbD0iIzAwMDAwMCIgZm9udC1mYW1pbHk9InNhbnMtc2VyaWYiIGZvbnQtc2l6ZT0iMTQiIGxlbmd0aEFkanVzdD0ic3BhY2luZyIgdGV4dExlbmd0aD0iNzgiIHg9IjE1NDkiIHk9IjU1MS43MzQ0Ij5SdW53YXkgRGF0YTwvdGV4dD48L2c+PCEtLWVudGl0eSBmbGlnaHRTY2hlZHVsaW5nLS0+PGcgaWQ9ImVsZW1fZmxpZ2h0U2NoZWR1bGluZyI+PHJlY3QgZmlsbD0iI0UwRkZGRiIgaGVpZ2h0PSIzNC45ODQ0IiByeD0iMi41IiByeT0iMi41IiBzdHlsZT0ic3Ryb2tlOiMyRjRGNEY7c3Ryb2tlLXdpZHRoOjAuNTsiIHdpZHRoPSIxMzkiIHg9IjQ2MC41IiB5PSI1MTkiLz48dGV4dCBmaWxsPSIjMDAwMDAwIiBmb250LWZhbWlseT0ic2Fucy1zZXJpZiIgZm9udC1zaXplPSIxNCIgbGVuZ3RoQWRqdXN0PSJzcGFjaW5nIiB0ZXh0TGVuZ3RoPSIxMTkiIHg9IjQ3MC41IiB5PSI1NDIuMjM0NCI+RmxpZ2h0IFNjaGVkdWxpbmc8L3RleHQ+PC9nPjwhLS1lbnRpdHkgZmxpZ2h0TW9uaXRvcmluZy0tPjxnIGlkPSJlbGVtX2ZsaWdodE1vbml0b3JpbmciPjxyZWN0IGZpbGw9IiNFMEZGRkYiIGhlaWdodD0iMzQuOTg0NCIgcng9IjIuNSIgcnk9IjIuNSIgc3R5bGU9InN0cm9rZTojMkY0RjRGO3N0cm9rZS13aWR0aDowLjU7IiB3aWR0aD0iMTM5IiB4PSI2MzQuNSIgeT0iNTE5Ii8+PHRleHQgZmlsbD0iIzAwMDAwMCIgZm9udC1mYW1pbHk9InNhbnMtc2VyaWYiIGZvbnQtc2l6ZT0iMTQiIGxlbmd0aEFkanVzdD0ic3BhY2luZyIgdGV4dExlbmd0aD0iMTE5IiB4PSI2NDQuNSIgeT0iNTQyLjIzNDQiPkZsaWdodCBNb25pdG9yaW5nPC90ZXh0PjwvZz48IS0tZW50aXR5IGNoZWNraW4tLT48ZyBpZD0iZWxlbV9jaGVja2luIj48cmVjdCBmaWxsPSIjRTBGRkZGIiBoZWlnaHQ9IjM0Ljk4NDQiIHJ4PSIyLjUiIHJ5PSIyLjUiIHN0eWxlPSJzdHJva2U6IzJGNEY0RjtzdHJva2Utd2lkdGg6MC41OyIgd2lkdGg9Ijc2IiB4PSI3MSIgeT0iNTE5Ii8+PHRleHQgZmlsbD0iIzAwMDAwMCIgZm9udC1mYW1pbHk9InNhbnMtc2VyaWYiIGZvbnQtc2l6ZT0iMTQiIGxlbmd0aEFkanVzdD0ic3BhY2luZyIgdGV4dExlbmd0aD0iNTYiIHg9IjgxIiB5PSI1NDIuMjM0NCI+Q2hlY2staW48L3RleHQ+PC9nPjwhLS1lbnRpdHkgYm9hcmRpbmctLT48ZyBpZD0iZWxlbV9ib2FyZGluZyI+PHJlY3QgZmlsbD0iI0UwRkZGRiIgaGVpZ2h0PSIzNC45ODQ0IiByeD0iMi41IiByeT0iMi41IiBzdHlsZT0ic3Ryb2tlOiMyRjRGNEY7c3Ryb2tlLXdpZHRoOjAuNTsiIHdpZHRoPSI3NiIgeD0iMTgyIiB5PSI1MTkiLz48dGV4dCBmaWxsPSIjMDAwMDAwIiBmb250LWZhbWlseT0ic2Fucy1zZXJpZiIgZm9udC1zaXplPSIxNCIgbGVuZ3RoQWRqdXN0PSJzcGFjaW5nIiB0ZXh0TGVuZ3RoPSI1NiIgeD0iMTkyIiB5PSI1NDIuMjM0NCI+Qm9hcmRpbmc8L3RleHQ+PC9nPjwhLS1lbnRpdHkgYmFnZ2FnZUhhbmRsaW5nLS0+PGcgaWQ9ImVsZW1fYmFnZ2FnZUhhbmRsaW5nIj48cmVjdCBmaWxsPSIjRTBGRkZGIiBoZWlnaHQ9IjM0Ljk4NDQiIHJ4PSIyLjUiIHJ5PSIyLjUiIHN0eWxlPSJzdHJva2U6IzJGNEY0RjtzdHJva2Utd2lkdGg6MC41OyIgd2lkdGg9IjEzMiIgeD0iMjkzIiB5PSI1MTkiLz48dGV4dCBmaWxsPSIjMDAwMDAwIiBmb250LWZhbWlseT0ic2Fucy1zZXJpZiIgZm9udC1zaXplPSIxNCIgbGVuZ3RoQWRqdXN0PSJzcGFjaW5nIiB0ZXh0TGVuZ3RoPSIxMTIiIHg9IjMwMyIgeT0iNTQyLjIzNDQiPkJhZ2dhZ2UgSGFuZGxpbmc8L3RleHQ+PC9nPjwhLS1saW5rIHBhc3NlbmdlciB0byBjaGVja2luLS0+PGcgaWQ9ImxpbmtfcGFzc2VuZ2VyX2NoZWNraW4iPjxwYXRoIGQ9Ik0yMDMuOTMsMzg0LjA5IEMxOTEuMzcsMzk5Ljk4IDE3Ni45NSw0MTkuMDMgMTY1LDQzNyBDMTQ2LjU5LDQ2NC42OCAxMzAuODYyOSw0OTMuNDI0NCAxMjAuNDEyOSw1MTMuMzg0NCAiIGZpbGw9Im5vbmUiIGlkPSJwYXNzZW5nZXItdG8tY2hlY2tpbiIgc3R5bGU9InN0cm9rZTojMTgxODE4O3N0cm9rZS13aWR0aDoxLjA7Ii8+PHBvbHlnb24gZmlsbD0iIzE4MTgxOCIgcG9pbnRzPSIxMTcuNjMsNTE4LjcsMTI1LjM0ODEsNTEyLjU4MiwxMTkuOTQ5MSw1MTQuMjcwNCwxMTguMjYwNyw1MDguODcxNCwxMTcuNjMsNTE4LjciIHN0eWxlPSJzdHJva2U6IzE4MTgxODtzdHJva2Utd2lkdGg6MS4wOyIvPjx0ZXh0IGZpbGw9IiMwMDAwMDAiIGZvbnQtZmFtaWx5PSJzYW5zLXNlcmlmIiBmb250LXNpemU9IjEzIiBsZW5ndGhBZGp1c3Q9InNwYWNpbmciIHRleHRMZW5ndGg9IjU1IiB4PSIxODIiIHk9IjQyNy4yODkxIj5DaGVjay1pbjwvdGV4dD48L2c+PCEtLWxpbmsgcGFzc2VuZ2VyIHRvIGJhZ2dhZ2VIYW5kbGluZy0tPjxnIGlkPSJsaW5rX3Bhc3Nlbmdlcl9iYWdnYWdlSGFuZGxpbmciPjxwYXRoIGQ9Ik0yNTguNCwzODQuMTkgQzI4NS40LDQyNC44IDMyNC40MTgzLDQ4My40ODM0IDM0NC40NDgzLDUxMy42MTM0ICIgZmlsbD0ibm9uZSIgaWQ9InBhc3Nlbmdlci10by1iYWdnYWdlSGFuZGxpbmciIHN0eWxlPSJzdHJva2U6IzE4MTgxODtzdHJva2Utd2lkdGg6MS4wOyIvPjxwb2x5Z29uIGZpbGw9IiMxODE4MTgiIHBvaW50cz0iMzQ3Ljc3LDUxOC42MSwzNDYuMTE4Niw1MDguOTAwNiwzNDUuMDAxOSw1MTQuNDQ2MSwzMzkuNDU2NCw1MTMuMzI5NSwzNDcuNzcsNTE4LjYxIiBzdHlsZT0ic3Ryb2tlOiMxODE4MTg7c3Ryb2tlLXdpZHRoOjEuMDsiLz48dGV4dCBmaWxsPSIjMDAwMDAwIiBmb250LWZhbWlseT0ic2Fucy1zZXJpZiIgZm9udC1zaXplPSIxMyIgbGVuZ3RoQWRqdXN0PSJzcGFjaW5nIiB0ZXh0TGVuZ3RoPSI0OSIgeD0iMjg2IiB5PSI0MjcuMjg5MSI+QmFnZ2FnZTwvdGV4dD48L2c+PCEtLWxpbmsgYWlybGluZVN0YWZmIHRvIGZsaWdodFNjaGVkdWxpbmctLT48ZyBpZD0ibGlua19haXJsaW5lU3RhZmZfZmxpZ2h0U2NoZWR1bGluZyI+PHBhdGggZD0iTTU1Ny4yNSwzNzUuNDQgQzU0NC4zOSwzODUuODEgNTMyLjAxLDM5OC44MSA1MjUsNDE0IEM1MDkuMDgsNDQ4LjUgNTE2LjQyMzYsNDg4Ljc2NjMgNTIzLjEzMzYsNTEzLjA3NjMgIiBmaWxsPSJub25lIiBpZD0iYWlybGluZVN0YWZmLXRvLWZsaWdodFNjaGVkdWxpbmciIHN0eWxlPSJzdHJva2U6IzE4MTgxODtzdHJva2Utd2lkdGg6MS4wOyIvPjxwb2x5Z29uIGZpbGw9IiMxODE4MTgiIHBvaW50cz0iNTI0LjczLDUxOC44Niw1MjYuMTkxMiw1MDkuMTIwMSw1MjMuMzk5Nyw1MTQuMDQwMiw1MTguNDc5Niw1MTEuMjQ4Nyw1MjQuNzMsNTE4Ljg2IiBzdHlsZT0ic3Ryb2tlOiMxODE4MTg7c3Ryb2tlLXdpZHRoOjEuMDsiLz48dGV4dCBmaWxsPSIjMDAwMDAwIiBmb250LWZhbWlseT0ic2Fucy1zZXJpZiIgZm9udC1zaXplPSIxMyIgbGVuZ3RoQWRqdXN0PSJzcGFjaW5nIiB0ZXh0TGVuZ3RoPSIxMDgiIHg9IjUyNiIgeT0iNDI3LjI4OTEiPkZsaWdodCBzY2hlZHVsZXM8L3RleHQ+PC9nPjwhLS1saW5rIGFpcmxpbmVTdGFmZiB0byBmbGlnaHRNb25pdG9yaW5nLS0+PGcgaWQ9ImxpbmtfYWlybGluZVN0YWZmX2ZsaWdodE1vbml0b3JpbmciPjxwYXRoIGQ9Ik02MjIuODQsMzg0LjA3IEM2MjguMSwzOTMuNzkgNjMzLjc3LDQwNC4yOSA2MzksNDE0IEM2NTkuMTgsNDUxLjUgNjc5Ljg5NzMsNDkwLjI5NTQgNjkyLjM2NzMsNTEzLjY4NTQgIiBmaWxsPSJub25lIiBpZD0iYWlybGluZVN0YWZmLXRvLWZsaWdodE1vbml0b3JpbmciIHN0eWxlPSJzdHJva2U6IzE4MTgxODtzdHJva2Utd2lkdGg6MS4wOyIvPjxwb2x5Z29uIGZpbGw9IiMxODE4MTgiIHBvaW50cz0iNjk1LjE5LDUxOC45OCw2OTQuNDg1Niw1MDkuMTU2NCw2OTIuODM3Nyw1MTQuNTY3OSw2ODcuNDI2Miw1MTIuOTIsNjk1LjE5LDUxOC45OCIgc3R5bGU9InN0cm9rZTojMTgxODE4O3N0cm9rZS13aWR0aDoxLjA7Ii8+PHRleHQgZmlsbD0iIzAwMDAwMCIgZm9udC1mYW1pbHk9InNhbnMtc2VyaWYiIGZvbnQtc2l6ZT0iMTMiIGxlbmd0aEFkanVzdD0ic3BhY2luZyIgdGV4dExlbmd0aD0iODYiIHg9IjY0NyIgeT0iNDI3LjI4OTEiPkZsaWdodCBzdGF0dXM8L3RleHQ+PC9nPjwhLS1saW5rIGJhZ2dhZ2VIYW5kbGluZyB0byBiYWdnYWdlLS0+PGcgaWQ9ImxpbmtfYmFnZ2FnZUhhbmRsaW5nX2JhZ2dhZ2UiPjxwYXRoIGQ9Ik0zNTkuNjcsNTU0LjIgQzM2MS4zOCw1NzMuOTQgMzY3LjI0LDYwNi40MyAzODcsNjI1IEM0MzIuODcsNjY4LjA5IDUwMy43MDA5LDY3Ni4wNjg5IDU0OC4yMjA5LDY3Ni44MTg5ICIgZmlsbD0ibm9uZSIgaWQ9ImJhZ2dhZ2VIYW5kbGluZy10by1iYWdnYWdlIiBzdHlsZT0ic3Ryb2tlOiMxODE4MTg7c3Ryb2tlLXdpZHRoOjEuMDsiLz48cG9seWdvbiBmaWxsPSIjMTgxODE4IiBwb2ludHM9IjU1NC4yMiw2NzYuOTIsNTQ1LjI4ODcsNjcyLjc2OSw1NDkuMjIwNyw2NzYuODM1OCw1NDUuMTUzOSw2ODAuNzY3OCw1NTQuMjIsNjc2LjkyIiBzdHlsZT0ic3Ryb2tlOiMxODE4MTg7c3Ryb2tlLXdpZHRoOjEuMDsiLz48dGV4dCBmaWxsPSIjMDAwMDAwIiBmb250LWZhbWlseT0ic2Fucy1zZXJpZiIgZm9udC1zaXplPSIxMyIgbGVuZ3RoQWRqdXN0PSJzcGFjaW5nIiB0ZXh0TGVuZ3RoPSI4MyIgeD0iMzg4IiB5PSI2MjMuMjg5MSI+QmFnZ2FnZSBkYXRhPC90ZXh0PjwvZz48IS0tbGluayBzZWN1cml0eVN0YWZmIHRvIHNlY3VyaXR5Q2hlY2stLT48ZyBpZD0ibGlua19zZWN1cml0eVN0YWZmX3NlY3VyaXR5Q2hlY2siPjxwYXRoIGQ9Ik0xNTc3LjkzLDExNS4wNiBDMTU3My42MywxNDAuOTUgMTU2OS4wNTQsMTY4LjU1MTIgMTU2NS43NjQsMTg4LjM0MTIgIiBmaWxsPSJub25lIiBpZD0ic2VjdXJpdHlTdGFmZi10by1zZWN1cml0eUNoZWNrIiBzdHlsZT0ic3Ryb2tlOiMxODE4MTg7c3Ryb2tlLXdpZHRoOjEuMDsiLz48cG9seWdvbiBmaWxsPSIjMTgxODE4IiBwb2ludHM9IjE1NjQuNzgsMTk0LjI2LDE1NzAuMjAxOCwxODYuMDM3OCwxNTY1LjYsMTg5LjMyNzcsMTU2Mi4zMTAxLDE4NC43MjU5LDE1NjQuNzgsMTk0LjI2IiBzdHlsZT0ic3Ryb2tlOiMxODE4MTg7c3Ryb2tlLXdpZHRoOjEuMDsiLz48dGV4dCBmaWxsPSIjMDAwMDAwIiBmb250LWZhbWlseT0ic2Fucy1zZXJpZiIgZm9udC1zaXplPSIxMyIgbGVuZ3RoQWRqdXN0PSJzcGFjaW5nIiB0ZXh0TGVuZ3RoPSIxMDMiIHg9IjE1NzMiIHk9IjE1OC4yODkxIj5TZWN1cml0eSBjaGVja3M8L3RleHQ+PC9nPjwhLS1saW5rIHNlY3VyaXR5Q2hlY2sgdG8gZmxpZ2h0LS0+PGcgaWQ9Imxpbmtfc2VjdXJpdHlDaGVja19mbGlnaHQiPjxwYXRoIGQ9Ik0xNTYwLjYzLDIyOS41MSBDMTU1OC42NCwyNTMuNTIgMTU1NS40MzcsMjkyLjA3MDYgMTU1My4yNDcsMzE4LjQyMDYgIiBmaWxsPSJub25lIiBpZD0ic2VjdXJpdHlDaGVjay10by1mbGlnaHQiIHN0eWxlPSJzdHJva2U6IzE4MTgxODtzdHJva2Utd2lkdGg6MS4wOyIvPjxwb2x5Z29uIGZpbGw9IiMxODE4MTgiIHBvaW50cz0iMTU1Mi43NSwzMjQuNCwxNTU3LjQ4MTcsMzE1Ljc2MjIsMTU1My4xNjQxLDMxOS40MTcyLDE1NDkuNTA5MiwzMTUuMDk5NiwxNTUyLjc1LDMyNC40IiBzdHlsZT0ic3Ryb2tlOiMxODE4MTg7c3Ryb2tlLXdpZHRoOjEuMDsiLz48dGV4dCBmaWxsPSIjMDAwMDAwIiBmb250LWZhbWlseT0ic2Fucy1zZXJpZiIgZm9udC1zaXplPSIxMyIgbGVuZ3RoQWRqdXN0PSJzcGFjaW5nIiB0ZXh0TGVuZ3RoPSI3MyIgeD0iMTU1OCIgeT0iMjc3LjI4OTEiPkZsaWdodCBkYXRhPC90ZXh0PjwvZz48IS0tbGluayB0cmFuc3BvcnRhdGlvblByb3ZpZGVyIHRvIHRyYW5zcG9ydGF0aW9uU2VydmljZXMtLT48ZyBpZD0ibGlua190cmFuc3BvcnRhdGlvblByb3ZpZGVyX3RyYW5zcG9ydGF0aW9uU2VydmljZXMiPjxwYXRoIGQ9Ik0xMzMyLjMyLDExNS4yNSBDMTMzMS4zOSwxMjkuMzQgMTMzMS4zOSwxNDUuNTEgMTMzNCwxNjAgQzEzMzYuMTUsMTcxLjkgMTMzOC41Mjc2LDE3OS4xMzg5IDEzNDIuNzM3NiwxODguOTE4OSAiIGZpbGw9Im5vbmUiIGlkPSJ0cmFuc3BvcnRhdGlvblByb3ZpZGVyLXRvLXRyYW5zcG9ydGF0aW9uU2VydmljZXMiIHN0eWxlPSJzdHJva2U6IzE4MTgxODtzdHJva2Utd2lkdGg6MS4wOyIvPjxwb2x5Z29uIGZpbGw9IiMxODE4MTgiIHBvaW50cz0iMTM0NS4xMSwxOTQuNDMsMTM0NS4yMjU1LDE4NC41ODE4LDEzNDMuMTMzLDE4OS44Mzc0LDEzMzcuODc3NCwxODcuNzQ1LDEzNDUuMTEsMTk0LjQzIiBzdHlsZT0ic3Ryb2tlOiMxODE4MTg7c3Ryb2tlLXdpZHRoOjEuMDsiLz48dGV4dCBmaWxsPSIjMDAwMDAwIiBmb250LWZhbWlseT0ic2Fucy1zZXJpZiIgZm9udC1zaXplPSIxMyIgbGVuZ3RoQWRqdXN0PSJzcGFjaW5nIiB0ZXh0TGVuZ3RoPSIyMDUiIHg9IjEzMzUiIHk9IjE1OC4yODkxIj5Hcm91bmQgdHJhbnNwb3J0YXRpb24gcmVxdWVzdHM8L3RleHQ+PC9nPjwhLS1saW5rIHRyYW5zcG9ydGF0aW9uU2VydmljZXMgdG8gZmxpZ2h0LS0+PGcgaWQ9ImxpbmtfdHJhbnNwb3J0YXRpb25TZXJ2aWNlc19mbGlnaHQiPjxwYXRoIGQ9Ik0xMzc3LjY4LDIyOS41MSBDMTQxMy42NSwyNTMuNTkgMTQ3NS40ODM4LDI5NC45NjI3IDE1MTQuODIzOCwzMjEuMjkyNyAiIGZpbGw9Im5vbmUiIGlkPSJ0cmFuc3BvcnRhdGlvblNlcnZpY2VzLXRvLWZsaWdodCIgc3R5bGU9InN0cm9rZTojMTgxODE4O3N0cm9rZS13aWR0aDoxLjA7Ii8+PHBvbHlnb24gZmlsbD0iIzE4MTgxOCIgcG9pbnRzPSIxNTE5LjgxLDMyNC42MywxNTE0LjU1NTUsMzE2LjI5OTksMTUxNS42NTQ4LDMyMS44NDg5LDE1MTAuMTA1OCwzMjIuOTQ4MywxNTE5LjgxLDMyNC42MyIgc3R5bGU9InN0cm9rZTojMTgxODE4O3N0cm9rZS13aWR0aDoxLjA7Ii8+PHRleHQgZmlsbD0iIzAwMDAwMCIgZm9udC1mYW1pbHk9InNhbnMtc2VyaWYiIGZvbnQtc2l6ZT0iMTMiIGxlbmd0aEFkanVzdD0ic3BhY2luZyIgdGV4dExlbmd0aD0iNzMiIHg9IjE0NDciIHk9IjI3Ny4yODkxIj5GbGlnaHQgZGF0YTwvdGV4dD48L2c+PCEtLWxpbmsgZHV0eUZyZWVWZW5kb3IgdG8gZHV0eUZyZWVNYW5hZ2VtZW50LS0+PGcgaWQ9ImxpbmtfZHV0eUZyZWVWZW5kb3JfZHV0eUZyZWVNYW5hZ2VtZW50Ij48cGF0aCBkPSJNMTc1NCwxMTUuMDYgQzE3NTQsMTQwLjk1IDE3NTQsMTY4LjQ3IDE3NTQsMTg4LjI2ICIgZmlsbD0ibm9uZSIgaWQ9ImR1dHlGcmVlVmVuZG9yLXRvLWR1dHlGcmVlTWFuYWdlbWVudCIgc3R5bGU9InN0cm9rZTojMTgxODE4O3N0cm9rZS13aWR0aDoxLjA7Ii8+PHBvbHlnb24gZmlsbD0iIzE4MTgxOCIgcG9pbnRzPSIxNzU0LDE5NC4yNiwxNzU4LDE4NS4yNiwxNzU0LDE4OS4yNiwxNzUwLDE4NS4yNiwxNzU0LDE5NC4yNiIgc3R5bGU9InN0cm9rZTojMTgxODE4O3N0cm9rZS13aWR0aDoxLjA7Ii8+PHRleHQgZmlsbD0iIzAwMDAwMCIgZm9udC1mYW1pbHk9InNhbnMtc2VyaWYiIGZvbnQtc2l6ZT0iMTMiIGxlbmd0aEFkanVzdD0ic3BhY2luZyIgdGV4dExlbmd0aD0iMTE2IiB4PSIxNzU1IiB5PSIxNTguMjg5MSI+SW52ZW50b3J5IHVwZGF0ZXM8L3RleHQ+PC9nPjwhLS1saW5rIGR1dHlGcmVlTWFuYWdlbWVudCB0byBmbGlnaHQtLT48ZyBpZD0ibGlua19kdXR5RnJlZU1hbmFnZW1lbnRfZmxpZ2h0Ij48cGF0aCBkPSJNMTcyOC43LDIyOS41MSBDMTY5MS42MSwyNTMuNzIgMTYyNy41NDQzLDI5NS41NDA0IDE1ODcuMzE0MywzMjEuODAwNCAiIGZpbGw9Im5vbmUiIGlkPSJkdXR5RnJlZU1hbmFnZW1lbnQtdG8tZmxpZ2h0IiBzdHlsZT0ic3Ryb2tlOiMxODE4MTg7c3Ryb2tlLXdpZHRoOjEuMDsiLz48cG9seWdvbiBmaWxsPSIjMTgxODE4IiBwb2ludHM9IjE1ODIuMjksMzI1LjA4LDE1OTIuMDEyOSwzMjMuNTEwMSwxNTg2LjQ3NywzMjIuMzQ3LDE1ODcuNjQwMSwzMTYuODExLDE1ODIuMjksMzI1LjA4IiBzdHlsZT0ic3Ryb2tlOiMxODE4MTg7c3Ryb2tlLXdpZHRoOjEuMDsiLz48dGV4dCBmaWxsPSIjMDAwMDAwIiBmb250LWZhbWlseT0ic2Fucy1zZXJpZiIgZm9udC1zaXplPSIxMyIgbGVuZ3RoQWRqdXN0PSJzcGFjaW5nIiB0ZXh0TGVuZ3RoPSI5NSIgeD0iMTY3MSIgeT0iMjc3LjI4OTEiPkludmVudG9yeSBkYXRhPC90ZXh0PjwvZz48IS0tbGluayBmbGlnaHQgdG8gYWlycG9ydFRhYmxlLS0+PGcgaWQ9ImxpbmtfZmxpZ2h0X2FpcnBvcnRUYWJsZSI+PHBhdGggZD0iTTE1MTkuODIsMzYzLjQ3IEMxNDgwLjYzLDM4Mi43IDE0MTAuNzMsNDE0LjI4IDEzNDcsNDI5IEMxMzM1LjI4LDQzMS43MSAxMjQ3LjE5LDQyOC4xOCAxMjM5LDQzNyBDMTE4OS4xLDQ5MC43NCAxMjA5LjgzLDUzNC43MiAxMjM5LDYwMiBDMTI0OC40Miw2MjMuNzMgMTI2Mi45MTA3LDYzOC4zNzU3IDEyODAuMDcwNyw2NTEuMzI1NyAiIGZpbGw9Im5vbmUiIGlkPSJmbGlnaHQtdG8tYWlycG9ydFRhYmxlIiBzdHlsZT0ic3Ryb2tlOiMxODE4MTg7c3Ryb2tlLXdpZHRoOjEuMDsiLz48cG9seWdvbiBmaWxsPSIjMTgxODE4IiBwb2ludHM9IjEyODQuODYsNjU0Ljk0LDEyODAuMDg1Niw2NDYuMzI1NywxMjgwLjg2ODksNjUxLjkyODEsMTI3NS4yNjY2LDY1Mi43MTE0LDEyODQuODYsNjU0Ljk0IiBzdHlsZT0ic3Ryb2tlOiMxODE4MTg7c3Ryb2tlLXdpZHRoOjEuMDsiLz48dGV4dCBmaWxsPSIjMDAwMDAwIiBmb250LWZhbWlseT0ic2Fucy1zZXJpZiIgZm9udC1zaXplPSIxMyIgbGVuZ3RoQWRqdXN0PSJzcGFjaW5nIiB0ZXh0TGVuZ3RoPSIxNzAiIHg9IjEyNDAiIHk9IjU0Mi4yODkxIj5EZXBhcnR1cmUvQXJyaXZhbCBhaXJwb3J0PC90ZXh0PjwvZz48IS0tbGluayBmbGlnaHQgdG8gYWlybGluZS0tPjxnIGlkPSJsaW5rX2ZsaWdodF9haXJsaW5lIj48cGF0aCBkPSJNMTU4Mi4yOSwzNDguMDggQzE2NjQuNTgsMzUwLjM1IDE4ODMuNzksMzYxLjMgMTkyOCw0MTQgQzE5NDMuMzEsNDMyLjI1IDIwNzkuOTIsMjg1LjU3IDE4OTgsNjI1IEMxODkxLjg1LDYzNi40NyAxODg2LjY0OTIsNjQyLjgxMTIgMTg3Ni45NzkyLDY1MS4wNDEyICIgZmlsbD0ibm9uZSIgaWQ9ImZsaWdodC10by1haXJsaW5lIiBzdHlsZT0ic3Ryb2tlOiMxODE4MTg7c3Ryb2tlLXdpZHRoOjEuMDsiLz48cG9seWdvbiBmaWxsPSIjMTgxODE4IiBwb2ludHM9IjE4NzIuNDEsNjU0LjkzLDE4ODEuODU2Myw2NTIuMTQzLDE4NzYuMjE3Nyw2NTEuNjg5NCwxODc2LjY3MTMsNjQ2LjA1MDcsMTg3Mi40MSw2NTQuOTMiIHN0eWxlPSJzdHJva2U6IzE4MTgxODtzdHJva2Utd2lkdGg6MS4wOyIvPjx0ZXh0IGZpbGw9IiMwMDAwMDAiIGZvbnQtZmFtaWx5PSJzYW5zLXNlcmlmIiBmb250LXNpemU9IjEzIiBsZW5ndGhBZGp1c3Q9InNwYWNpbmciIHRleHRMZW5ndGg9IjExNCIgeD0iMTk4NiIgeT0iNTQyLjI4OTEiPk9wZXJhdGluZyBhaXJsaW5lPC90ZXh0PjwvZz48IS0tbGluayBmbGlnaHQgdG8gZW1wbG95ZWUtLT48ZyBpZD0ibGlua19mbGlnaHRfZW1wbG95ZWUiPjxwYXRoIGQ9Ik0xNTgyLjM1LDM2MC45OCBDMTYwNS41MywzNzIuMjggMTYzNi41MSwzOTAuMzcgMTY1Nyw0MTQgQzE2ODIuODYsNDQzLjgyIDE2OTYuNjM1MSw0ODIuMjM3IDE3MDQuMDE1MSw1MDguMjk3ICIgZmlsbD0ibm9uZSIgaWQ9ImZsaWdodC10by1lbXBsb3llZSIgc3R5bGU9InN0cm9rZTojMTgxODE4O3N0cm9rZS13aWR0aDoxLjA7Ii8+PHBvbHlnb24gZmlsbD0iIzE4MTgxOCIgcG9pbnRzPSIxNzA1LjY1LDUxNC4wNywxNzA3LjA0NjQsNTA0LjMyMDYsMTcwNC4yODc2LDUwOS4yNTkyLDE2OTkuMzQ5MSw1MDYuNTAwNCwxNzA1LjY1LDUxNC4wNyIgc3R5bGU9InN0cm9rZTojMTgxODE4O3N0cm9rZS13aWR0aDoxLjA7Ii8+PHRleHQgZmlsbD0iIzAwMDAwMCIgZm9udC1mYW1pbHk9InNhbnMtc2VyaWYiIGZvbnQtc2l6ZT0iMTMiIGxlbmd0aEFkanVzdD0ic3BhY2luZyIgdGV4dExlbmd0aD0iNzMiIHg9IjE2NjgiIHk9IjQyNy4yODkxIj5QaWxvdHMvQ3JldzwvdGV4dD48L2c+PCEtLWxpbmsgZmxpZ2h0IHRvIHRpY2tldC0tPjxnIGlkPSJsaW5rX2ZsaWdodF90aWNrZXQiPjxwYXRoIGQ9Ik0xNTE5LjcsMzQ4LjQ2IEMxNDI0LjgxLDM1MS44OCAxMTQyLjIxLDM2NS45NiAxMDY2LDQxNCBDMTAyOC40LDQzNy43IDEwMDYuOTA4NCw0ODAuNjY1MiA5OTUuNzU4NCw1MDguNjg1MiAiIGZpbGw9Im5vbmUiIGlkPSJmbGlnaHQtdG8tdGlja2V0IiBzdHlsZT0ic3Ryb2tlOiMxODE4MTg7c3Ryb2tlLXdpZHRoOjEuMDsiLz48cG9seWdvbiBmaWxsPSIjMTgxODE4IiBwb2ludHM9Ijk5My41NCw1MTQuMjYsMTAwMC41ODQxLDUwNy4zNzY3LDk5NS4zODg3LDUwOS42MTQzLDk5My4xNTEsNTA0LjQxODgsOTkzLjU0LDUxNC4yNiIgc3R5bGU9InN0cm9rZTojMTgxODE4O3N0cm9rZS13aWR0aDoxLjA7Ii8+PHRleHQgZmlsbD0iIzAwMDAwMCIgZm9udC1mYW1pbHk9InNhbnMtc2VyaWYiIGZvbnQtc2l6ZT0iMTMiIGxlbmd0aEFkanVzdD0ic3BhY2luZyIgdGV4dExlbmd0aD0iMTI1IiB4PSIxMDY3IiB5PSI0MjcuMjg5MSI+UGFzc2VuZ2VyIGJvb2tpbmdzPC90ZXh0PjwvZz48IS0tbGluayB0aWNrZXQgdG8gcGF5bWVudC0tPjxnIGlkPSJsaW5rX3RpY2tldF9wYXltZW50Ij48cGF0aCBkPSJNOTc1Ljg5LDU1OC43MSBDOTY3LjYyLDU3My41MiA5NTQuNDYsNTkyLjMgOTM3LDYwMiBDOTIwLjIyLDYxMS4zMiA4NjYuNSw1OTguNjcgODUxLDYxMCBDODM2LjYzLDYyMC41IDgzMC45MTQxLDYzNC4wMjAyIDgyNy40ODQxLDY0OS4wNjAyICIgZmlsbD0ibm9uZSIgaWQ9InRpY2tldC10by1wYXltZW50IiBzdHlsZT0ic3Ryb2tlOiMxODE4MTg7c3Ryb2tlLXdpZHRoOjEuMDsiLz48cG9seWdvbiBmaWxsPSIjMTgxODE4IiBwb2ludHM9IjgyNi4xNSw2NTQuOTEsODMyLjA1MSw2NDcuMDI0Nyw4MjcuMjYxNyw2NTAuMDM1Miw4MjQuMjUxMyw2NDUuMjQ1OSw4MjYuMTUsNjU0LjkxIiBzdHlsZT0ic3Ryb2tlOiMxODE4MTg7c3Ryb2tlLXdpZHRoOjEuMDsiLz48dGV4dCBmaWxsPSIjMDAwMDAwIiBmb250LWZhbWlseT0ic2Fucy1zZXJpZiIgZm9udC1zaXplPSIxMyIgbGVuZ3RoQWRqdXN0PSJzcGFjaW5nIiB0ZXh0TGVuZ3RoPSIxMDAiIHg9Ijg1MiIgeT0iNjIzLjI4OTEiPlBheW1lbnQgZGV0YWlsczwvdGV4dD48L2c+PCEtLWxpbmsgdGlja2V0IHRvIHBhc3NlbmdlclRhYmxlLS0+PGcgaWQ9ImxpbmtfdGlja2V0X3Bhc3NlbmdlclRhYmxlIj48cGF0aCBkPSJNOTgxLjc4LDUxNC4yIEM5NzUuOTgsNDkxLjA0IDk2My4xMyw0NTQuOTYgOTM3LDQzNyBDOTA2LjA5LDQxNS43NiA4ODQuNDIsNDQ5LjQ4IDg1Myw0MjkgQzc4OC45OSwzODcuMjggNzg4LjI5LDM1Mi45MyA3NjksMjc5IEM3NjcuMzIsMjcyLjU1IDc2Ni44NiwyNzAuMzEgNzY5LDI2NCBDNzc0LjQsMjQ4LjA5IDc4Mi4yNSwyNDcuNjggNzkyLDIzNCBDODE0LjksMjAxLjg4IDgyMC4wOSwxOTMuNDUgODQxLDE2MCBDODUzLjYyLDEzOS44MSA4NjQuMzQ1OSwxMjEuNTM5NiA4NzMuODc1OSwxMDQuOTg5NiAiIGZpbGw9Im5vbmUiIGlkPSJ0aWNrZXQtdG8tcGFzc2VuZ2VyVGFibGUiIHN0eWxlPSJzdHJva2U6IzE4MTgxODtzdHJva2Utd2lkdGg6MS4wOyIvPjxwb2x5Z29uIGZpbGw9IiMxODE4MTgiIHBvaW50cz0iODc2Ljg3LDk5Ljc5LDg2OC45MTI1LDEwNS41OTMzLDg3NC4zNzQ5LDEwNC4xMjMsODc1Ljg0NTMsMTA5LjU4NTQsODc2Ljg3LDk5Ljc5IiBzdHlsZT0ic3Ryb2tlOiMxODE4MTg7c3Ryb2tlLXdpZHRoOjEuMDsiLz48dGV4dCBmaWxsPSIjMDAwMDAwIiBmb250LWZhbWlseT0ic2Fucy1zZXJpZiIgZm9udC1zaXplPSIxMyIgbGVuZ3RoQWRqdXN0PSJzcGFjaW5nIiB0ZXh0TGVuZ3RoPSIxMTYiIHg9Ijc3MCIgeT0iMjc3LjI4OTEiPlBhc3NlbmdlciBkZXRhaWxzPC90ZXh0PjwvZz48IS0tbGluayB0aWNrZXQgdG8gYmFnZ2FnZS0tPjxnIGlkPSJsaW5rX3RpY2tldF9iYWdnYWdlIj48cGF0aCBkPSJNOTc2LjIyLDU1OC43IEM5NjguMDUsNTczLjcxIDk1NC44NSw1OTIuNzUgOTM3LDYwMiBDOTE0LjQ5LDYxMy42NiA3MzMuNDQsNjAzLjI2IDcwOSw2MTAgQzY3NS43Niw2MTkuMTYgNjQ2LjY2ODMsNjM1Ljc4NTkgNjIzLjM1ODMsNjUxLjM2NTkgIiBmaWxsPSJub25lIiBpZD0idGlja2V0LXRvLWJhZ2dhZ2UiIHN0eWxlPSJzdHJva2U6IzE4MTgxODtzdHJva2Utd2lkdGg6MS4wOyIvPjxwb2x5Z29uIGZpbGw9IiMxODE4MTgiIHBvaW50cz0iNjE4LjM3LDY1NC43LDYyOC4wNzUzLDY1My4wMjQ0LDYyMi41MjcsNjUxLjkyMTYsNjIzLjYyOTgsNjQ2LjM3MzIsNjE4LjM3LDY1NC43IiBzdHlsZT0ic3Ryb2tlOiMxODE4MTg7c3Ryb2tlLXdpZHRoOjEuMDsiLz48dGV4dCBmaWxsPSIjMDAwMDAwIiBmb250LWZhbWlseT0ic2Fucy1zZXJpZiIgZm9udC1zaXplPSIxMyIgbGVuZ3RoQWRqdXN0PSJzcGFjaW5nIiB0ZXh0TGVuZ3RoPSIxMTkiIHg9IjcxMCIgeT0iNjIzLjI4OTEiPlBhc3NlbmdlciBiYWdnYWdlPC90ZXh0PjwvZz48IS0tbGluayBwYXNzZW5nZXJUYWJsZSB0byBsb3N0QW5kRm91bmQtLT48ZyBpZD0ibGlua19wYXNzZW5nZXJUYWJsZV9sb3N0QW5kRm91bmQiPjxwYXRoIGQ9Ik04ODkuNDEsOTkuNzUgQzg5MC44OSwxNzQuNzkgODk2LjIyLDQyMy4wOSA5MDIsNDI5IEM5MjIuNjksNDUwLjE4IDEwMTMuOTEsNDE2LjIyIDEwMzUsNDM3IEMxMDk0LjY2LDQ5NS43OCAxMDY3LjY4LDU0My41OSAxMDQ4LDYyNSBDMTAzOS4zMSw2NjAuOTQgMTAzNSw2NzEuNzYgMTAxMCw2OTkgQzk4MC4yMSw3MzEuNDYgOTQyLjM5NTQsNzU0LjUwNDYgOTA5LjQ5NTQsNzcxLjEyNDYgIiBmaWxsPSJub25lIiBpZD0icGFzc2VuZ2VyVGFibGUtdG8tbG9zdEFuZEZvdW5kIiBzdHlsZT0ic3Ryb2tlOiMxODE4MTg7c3Ryb2tlLXdpZHRoOjEuMDsiLz48cG9seWdvbiBmaWxsPSIjMTgxODE4IiBwb2ludHM9IjkwNC4xNCw3NzMuODMsOTEzLjk3NjgsNzczLjM0MjIsOTA4LjYwMjksNzcxLjU3NTUsOTEwLjM2OTYsNzY2LjIwMTYsOTA0LjE0LDc3My44MyIgc3R5bGU9InN0cm9rZTojMTgxODE4O3N0cm9rZS13aWR0aDoxLjA7Ii8+PHRleHQgZmlsbD0iIzAwMDAwMCIgZm9udC1mYW1pbHk9InNhbnMtc2VyaWYiIGZvbnQtc2l6ZT0iMTMiIGxlbmd0aEFkanVzdD0ic3BhY2luZyIgdGV4dExlbmd0aD0iMTM1IiB4PSI5MDMiIHk9IjQyNy4yODkxIj5Mb3N0IGFuZCBmb3VuZCBpdGVtczwvdGV4dD48L2c+PCEtLWxpbmsgZW1wbG95ZWUgdG8gYWlybGluZS0tPjxnIGlkPSJsaW5rX2VtcGxveWVlX2FpcmxpbmUiPjxwYXRoIGQ9Ik0xNzI1LjQxLDU1OC43NSBDMTczOC4zOSw1NzcuMTkgMTc1OC41Myw2MDQuMTIgMTc3OSw2MjUgQzE3ODkuNDQsNjM1LjY1IDE3OTcuMzEyNiw2NDIuNTM1MiAxODA4LjQ4MjYsNjUxLjI2NTIgIiBmaWxsPSJub25lIiBpZD0iZW1wbG95ZWUtdG8tYWlybGluZSIgc3R5bGU9InN0cm9rZTojMTgxODE4O3N0cm9rZS13aWR0aDoxLjA7Ii8+PHBvbHlnb24gZmlsbD0iIzE4MTgxOCIgcG9pbnRzPSIxODEzLjIxLDY1NC45NiwxODA4LjU4Miw2NDYuMjY2MiwxODA5LjI3MDUsNjUxLjg4MSwxODAzLjY1NTcsNjUyLjU2OTUsMTgxMy4yMSw2NTQuOTYiIHN0eWxlPSJzdHJva2U6IzE4MTgxODtzdHJva2Utd2lkdGg6MS4wOyIvPjx0ZXh0IGZpbGw9IiMwMDAwMDAiIGZvbnQtZmFtaWx5PSJzYW5zLXNlcmlmIiBmb250LXNpemU9IjEzIiBsZW5ndGhBZGp1c3Q9InNwYWNpbmciIHRleHRMZW5ndGg9IjExMyIgeD0iMTc4MCIgeT0iNjIzLjI4OTEiPkVtcGxveWluZyBhaXJsaW5lPC90ZXh0PjwvZz48IS0tbGluayBlbXBsb3llZSB0byBhaXJwb3J0VGFibGUtLT48ZyBpZD0ibGlua19lbXBsb3llZV9haXJwb3J0VGFibGUiPjxwYXRoIGQ9Ik0xNjk3LjkyLDU1OC43IEMxNjg3LjkyLDU3My4xIDE2NzIuODUsNTkxLjQgMTY1NSw2MDIgQzE1NTYuMzgsNjYwLjU4IDE0MjIuNzI1NCw2NzIuNjk2MiAxMzU4LjYxNTQsNjc1LjE5NjIgIiBmaWxsPSJub25lIiBpZD0iZW1wbG95ZWUtdG8tYWlycG9ydFRhYmxlIiBzdHlsZT0ic3Ryb2tlOiMxODE4MTg7c3Ryb2tlLXdpZHRoOjEuMDsiLz48cG9seWdvbiBmaWxsPSIjMTgxODE4IiBwb2ludHM9IjEzNTIuNjIsNjc1LjQzLDEzNjEuNzY5LDY3OS4wNzYzLDEzNTcuNjE2Miw2NzUuMjM1MiwxMzYxLjQ1NzMsNjcxLjA4MjMsMTM1Mi42Miw2NzUuNDMiIHN0eWxlPSJzdHJva2U6IzE4MTgxODtzdHJva2Utd2lkdGg6MS4wOyIvPjx0ZXh0IGZpbGw9IiMwMDAwMDAiIGZvbnQtZmFtaWx5PSJzYW5zLXNlcmlmIiBmb250LXNpemU9IjEzIiBsZW5ndGhBZGp1c3Q9InNwYWNpbmciIHRleHRMZW5ndGg9IjEwMiIgeD0iMTYzOSIgeT0iNjIzLjI4OTEiPldvcmtpbmcgYWlycG9ydDwvdGV4dD48L2c+PCEtLWxpbmsgZmxpZ2h0QXR0ZW5kYW50IHRvIGZsaWdodC0tPjxnIGlkPSJsaW5rX2ZsaWdodEF0dGVuZGFudF9mbGlnaHQiPjxwYXRoIGQ9Ik0xODk5LjE5LDIzNC4wMSBDMTg2NC4wNSwyNDcuNDcgMTgxNy4wNSwyNjQuOTggMTc3NSwyNzkgQzE3MDYuNjksMzAxLjc4IDE2MzEuMjAxMSwzMjMuMzM0MyAxNTg3Ljc4MTEsMzM1LjM5NDMgIiBmaWxsPSJub25lIiBpZD0iZmxpZ2h0QXR0ZW5kYW50LXRvLWZsaWdodCIgc3R5bGU9InN0cm9rZTojMTgxODE4O3N0cm9rZS13aWR0aDoxLjA7Ii8+PHBvbHlnb24gZmlsbD0iIzE4MTgxOCIgcG9pbnRzPSIxNTgyLDMzNywxNTkxLjc0MjIsMzM4LjQ0NTUsMTU4Ni44MTc2LDMzNS42NjE5LDE1ODkuNjAxMiwzMzAuNzM3MywxNTgyLDMzNyIgc3R5bGU9InN0cm9rZTojMTgxODE4O3N0cm9rZS13aWR0aDoxLjA7Ii8+PHRleHQgZmlsbD0iIzAwMDAwMCIgZm9udC1mYW1pbHk9InNhbnMtc2VyaWYiIGZvbnQtc2l6ZT0iMTMiIGxlbmd0aEFkanVzdD0ic3BhY2luZyIgdGV4dExlbmd0aD0iMTA3IiB4PSIxODE1IiB5PSIyNzcuMjg5MSI+QXNzaWduZWQgZmxpZ2h0czwvdGV4dD48L2c+PCEtLWxpbmsgYmFnZ2FnZSB0byBsb3N0QW5kRm91bmQtLT48ZyBpZD0ibGlua19iYWdnYWdlX2xvc3RBbmRGb3VuZCI+PHBhdGggZD0iTTYyMy43Niw2OTMuMTggQzY3MC45Miw3MTMuNzcgNzQ5LjkwMTYsNzQ4LjIzODQgODAzLjIwMTYsNzcxLjUxODQgIiBmaWxsPSJub25lIiBpZD0iYmFnZ2FnZS10by1sb3N0QW5kRm91bmQiIHN0eWxlPSJzdHJva2U6IzE4MTgxODtzdHJva2Utd2lkdGg6MS4wOyIvPjxwb2x5Z29uIGZpbGw9IiMxODE4MTgiIHBvaW50cz0iODA4LjcsNzczLjkyLDgwMi4wNTM0LDc2Ni42NTIxLDgwNC4xMTgsNzcxLjkxODcsNzk4Ljg1MTMsNzczLjk4MzMsODA4LjcsNzczLjkyIiBzdHlsZT0ic3Ryb2tlOiMxODE4MTg7c3Ryb2tlLXdpZHRoOjEuMDsiLz48dGV4dCBmaWxsPSIjMDAwMDAwIiBmb250LWZhbWlseT0ic2Fucy1zZXJpZiIgZm9udC1zaXplPSIxMyIgbGVuZ3RoQWRqdXN0PSJzcGFjaW5nIiB0ZXh0TGVuZ3RoPSI4MyIgeD0iNzQwIiB5PSI3NDIuMjg5MSI+TG9zdCBiYWdnYWdlPC90ZXh0PjwvZz48IS0tbGluayBmbGlnaHQgdG8gY2l0eS0tPjxnIGlkPSJsaW5rX2ZsaWdodF9jaXR5Ij48cGF0aCBkPSJNMTU4Mi4zMiwzNTEuOTQgQzE2MjMuOTUsMzU5LjExIDE2OTguMjgsMzc2LjQyIDE3NTAsNDE0IEMxNzgzLjM5LDQzOC4yNiAxNzk3LjQxNTcsNDgwLjc0MDIgMTgwMy43NjU3LDUwOC41ODAyICIgZmlsbD0ibm9uZSIgaWQ9ImZsaWdodC10by1jaXR5IiBzdHlsZT0ic3Ryb2tlOiMxODE4MTg7c3Ryb2tlLXdpZHRoOjEuMDsiLz48cG9seWdvbiBmaWxsPSIjMTgxODE4IiBwb2ludHM9IjE4MDUuMSw1MTQuNDMsMTgwNi45OTg0LDUwNC43NjU4LDE4MDMuOTg4MSw1MDkuNTU1MiwxNzk5LjE5ODgsNTA2LjU0NDksMTgwNS4xLDUxNC40MyIgc3R5bGU9InN0cm9rZTojMTgxODE4O3N0cm9rZS13aWR0aDoxLjA7Ii8+PHRleHQgZmlsbD0iIzAwMDAwMCIgZm9udC1mYW1pbHk9InNhbnMtc2VyaWYiIGZvbnQtc2l6ZT0iMTMiIGxlbmd0aEFkanVzdD0ic3BhY2luZyIgdGV4dExlbmd0aD0iMTUzIiB4PSIxNzY2IiB5PSI0MjcuMjg5MSI+T3JpZ2luL0Rlc3RpbmF0aW9uIGNpdHk8L3RleHQ+PC9nPjwhLS1saW5rIGZsaWdodCB0byBoYW5nYXItLT48ZyBpZD0ibGlua19mbGlnaHRfaGFuZ2FyIj48cGF0aCBkPSJNMTUxOS43NiwzNTIuMTQgQzE0NjIuNzQsMzYxLjAzIDEzMzguMzYsMzgyLjQ1IDEyMzcsNDE0IEMxMjIwLjQ1LDQxOS4xNSAxMjE3LjE5LDQyMi44MiAxMjAxLDQyOSBDMTE5MC44OSw0MzIuODYgMTE4Ni4zNyw0MzAuMTQgMTE3OCw0MzcgQzExNTIuODMsNDU3LjYzIDExMzguMzEyOCw0ODYuNjY5IDExMjkuNTQyOCw1MDguODg5ICIgZmlsbD0ibm9uZSIgaWQ9ImZsaWdodC10by1oYW5nYXIiIHN0eWxlPSJzdHJva2U6IzE4MTgxODtzdHJva2Utd2lkdGg6MS4wOyIvPjxwb2x5Z29uIGZpbGw9IiMxODE4MTgiIHBvaW50cz0iMTEyNy4zNCw1MTQuNDcsMTEzNC4zNjQ4LDUwNy41NjcsMTEyOS4xNzU2LDUwOS44MTkxLDExMjYuOTIzNSw1MDQuNjMsMTEyNy4zNCw1MTQuNDciIHN0eWxlPSJzdHJva2U6IzE4MTgxODtzdHJva2Utd2lkdGg6MS4wOyIvPjx0ZXh0IGZpbGw9IiMwMDAwMDAiIGZvbnQtZmFtaWx5PSJzYW5zLXNlcmlmIiBmb250LXNpemU9IjEzIiBsZW5ndGhBZGp1c3Q9InNwYWNpbmciIHRleHRMZW5ndGg9IjEwNCIgeD0iMTIzOCIgeT0iNDI3LjI4OTEiPkFzc2lnbmVkIGhhbmdhcjwvdGV4dD48L2c+PCEtLWxpbmsgZmxpZ2h0IHRvIGFpcnBsYW5lLS0+PGcgaWQ9ImxpbmtfZmxpZ2h0X2FpcnBsYW5lIj48cGF0aCBkPSJNMTUxOS45NiwzNTMuNjQgQzE0ODguOCwzNjEuNjQgMTQ0Mi40MywzNzguOTcgMTQyMSw0MTQgQzE0MDEuMTYsNDQ2LjQzIDE0MjMuNDA2LDQ4NC4yODU1IDE0NDMuMzQ2LDUwOS40NzU1ICIgZmlsbD0ibm9uZSIgaWQ9ImZsaWdodC10by1haXJwbGFuZSIgc3R5bGU9InN0cm9rZTojMTgxODE4O3N0cm9rZS13aWR0aDoxLjA7Ii8+PHBvbHlnb24gZmlsbD0iIzE4MTgxOCIgcG9pbnRzPSIxNDQ3LjA3LDUxNC4xOCwxNDQ0LjYyMDMsNTA0LjY0MDcsMTQ0My45NjY3LDUxMC4yNTk2LDE0MzguMzQ3Nyw1MDkuNjA2LDE0NDcuMDcsNTE0LjE4IiBzdHlsZT0ic3Ryb2tlOiMxODE4MTg7c3Ryb2tlLXdpZHRoOjEuMDsiLz48dGV4dCBmaWxsPSIjMDAwMDAwIiBmb250LWZhbWlseT0ic2Fucy1zZXJpZiIgZm9udC1zaXplPSIxMyIgbGVuZ3RoQWRqdXN0PSJzcGFjaW5nIiB0ZXh0TGVuZ3RoPSIxMTYiIHg9IjE0MjIiIHk9IjQyNy4yODkxIj5Bc3NpZ25lZCBhaXJwbGFuZTwvdGV4dD48L2c+PCEtLWxpbmsgdGlja2V0IHRvIGNsYXNzLS0+PGcgaWQ9ImxpbmtfdGlja2V0X2NsYXNzIj48cGF0aCBkPSJNOTc3LjAyLDU1OC42MiBDOTcxLjQ2LDU3Mi44NSA5NjQuODcsNTkyLjIgOTYyLDYxMCBDOTYwLjk0LDYxNi41OCA5NjEuOCw2MTguMzQgOTYyLDYyNSBDOTYyLjI5LDYzNC43NSA5NjIuNDkzMSw2MzkuNTUyNSA5NjMuMDgzMSw2NDguNjgyNSAiIGZpbGw9Im5vbmUiIGlkPSJ0aWNrZXQtdG8tY2xhc3MiIHN0eWxlPSJzdHJva2U6IzE4MTgxODtzdHJva2Utd2lkdGg6MS4wOyIvPjxwb2x5Z29uIGZpbGw9IiMxODE4MTgiIHBvaW50cz0iOTYzLjQ3LDY1NC42Nyw5NjYuODgxMyw2NDUuNDMwOCw5NjMuMTQ3Niw2NDkuNjgwNCw5NTguODk3OSw2NDUuOTQ2Nyw5NjMuNDcsNjU0LjY3IiBzdHlsZT0ic3Ryb2tlOiMxODE4MTg7c3Ryb2tlLXdpZHRoOjEuMDsiLz48dGV4dCBmaWxsPSIjMDAwMDAwIiBmb250LWZhbWlseT0ic2Fucy1zZXJpZiIgZm9udC1zaXplPSIxMyIgbGVuZ3RoQWRqdXN0PSJzcGFjaW5nIiB0ZXh0TGVuZ3RoPSI4MCIgeD0iOTYzIiB5PSI2MjMuMjg5MSI+VGlja2V0IGNsYXNzPC90ZXh0PjwvZz48IS0tbGluayBwYXNzZW5nZXJUYWJsZSB0byBncm91bmRUcmFuc3BvcnRhdGlvbi0tPjxnIGlkPSJsaW5rX3Bhc3NlbmdlclRhYmxlX2dyb3VuZFRyYW5zcG9ydGF0aW9uIj48cGF0aCBkPSJNODk1LjE4LDk5LjgxIEM5MDEuMTMsMTE3LjQ3IDkxMS41MSwxNDIuNDMgOTI3LDE2MCBDOTM3LjQ0LDE3MS44NCA5NDYuMTQ4OCwxNzguODI2OCA5NTkuNDI4OCwxODYuODE2OCAiIGZpbGw9Im5vbmUiIGlkPSJwYXNzZW5nZXJUYWJsZS10by1ncm91bmRUcmFuc3BvcnRhdGlvbiIgc3R5bGU9InN0cm9rZTojMTgxODE4O3N0cm9rZS13aWR0aDoxLjA7Ii8+PHBvbHlnb24gZmlsbD0iIzE4MTgxOCIgcG9pbnRzPSI5NjQuNTcsMTg5LjkxLDk1OC45MjA0LDE4MS44NDI3LDk2MC4yODU3LDE4Ny4zMzIzLDk1NC43OTYsMTg4LjY5NzYsOTY0LjU3LDE4OS45MSIgc3R5bGU9InN0cm9rZTojMTgxODE4O3N0cm9rZS13aWR0aDoxLjA7Ii8+PHRleHQgZmlsbD0iIzAwMDAwMCIgZm9udC1mYW1pbHk9InNhbnMtc2VyaWYiIGZvbnQtc2l6ZT0iMTMiIGxlbmd0aEFkanVzdD0ic3BhY2luZyIgdGV4dExlbmd0aD0iMjA1IiB4PSI5MjgiIHk9IjE1OC4yODkxIj5Hcm91bmQgdHJhbnNwb3J0YXRpb24gcmVxdWVzdHM8L3RleHQ+PC9nPjwhLS1saW5rIGdyb3VuZFRyYW5zcG9ydGF0aW9uIHRvIGZsaWdodC0tPjxnIGlkPSJsaW5rX2dyb3VuZFRyYW5zcG9ydGF0aW9uX2ZsaWdodCI+PHBhdGggZD0iTTEwOTEuNjUsMjMzLjQxIEMxMjE0LjUyLDI2My4zOSAxNDMyLjIyMSwzMTYuNTE3OCAxNTE0LjA3MSwzMzYuNDg3OCAiIGZpbGw9Im5vbmUiIGlkPSJncm91bmRUcmFuc3BvcnRhdGlvbi10by1mbGlnaHQiIHN0eWxlPSJzdHJva2U6IzE4MTgxODtzdHJva2Utd2lkdGg6MS4wOyIvPjxwb2x5Z29uIGZpbGw9IiMxODE4MTgiIHBvaW50cz0iMTUxOS45LDMzNy45MSwxNTEyLjEwNDYsMzMxLjg5MDcsMTUxNS4wNDI1LDMzNi43MjQ5LDE1MTAuMjA4NCwzMzkuNjYyNywxNTE5LjksMzM3LjkxIiBzdHlsZT0ic3Ryb2tlOiMxODE4MTg7c3Ryb2tlLXdpZHRoOjEuMDsiLz48dGV4dCBmaWxsPSIjMDAwMDAwIiBmb250LWZhbWlseT0ic2Fucy1zZXJpZiIgZm9udC1zaXplPSIxMyIgbGVuZ3RoQWRqdXN0PSJzcGFjaW5nIiB0ZXh0TGVuZ3RoPSIxMjAiIHg9IjEyNjQiIHk9IjI3Ny4yODkxIj5Bc3NvY2lhdGVkIGZsaWdodHM8L3RleHQ+PC9nPjwhLS1saW5rIGJhZ2dhZ2VTdGFmZiB0byBiYWdnYWdlLS0+PGcgaWQ9ImxpbmtfYmFnZ2FnZVN0YWZmX2JhZ2dhZ2UiPjxwYXRoIGQ9Ik04NDcuMDMsNTU4LjYgQzgzMy40MSw1NzMuNzcgODEyLjg2LDU5My4wNiA3OTAsNjAyIEM3NzUuNjEsNjA3LjYzIDUyMi43Nyw1OTguOTIgNTEyLDYxMCBDNDkyLjgsNjI5Ljc2IDUyMC4zNzE2LDY0Ny41ODMgNTQ4Ljk2MTYsNjYwLjM1MyAiIGZpbGw9Im5vbmUiIGlkPSJiYWdnYWdlU3RhZmYtdG8tYmFnZ2FnZSIgc3R5bGU9InN0cm9rZTojMTgxODE4O3N0cm9rZS13aWR0aDoxLjA7Ii8+PHBvbHlnb24gZmlsbD0iIzE4MTgxOCIgcG9pbnRzPSI1NTQuNDQsNjYyLjgsNTQ3Ljg1MzgsNjU1LjQ3NzMsNTQ5Ljg3NDcsNjYwLjc2MDksNTQ0LjU5MTIsNjYyLjc4MTgsNTU0LjQ0LDY2Mi44IiBzdHlsZT0ic3Ryb2tlOiMxODE4MTg7c3Ryb2tlLXdpZHRoOjEuMDsiLz48dGV4dCBmaWxsPSIjMDAwMDAwIiBmb250LWZhbWlseT0ic2Fucy1zZXJpZiIgZm9udC1zaXplPSIxMyIgbGVuZ3RoQWRqdXN0PSJzcGFjaW5nIiB0ZXh0TGVuZ3RoPSIxMDUiIHg9IjUxMyIgeT0iNjIzLjI4OTEiPk1hbmFnZWQgYmFnZ2FnZTwvdGV4dD48L2c+PCEtLWxpbmsgc2VjdXJpdHlQb2ludCB0byBzZWN1cml0eVN0YWZmVGFibGUtLT48ZyBpZD0ibGlua19zZWN1cml0eVBvaW50X3NlY3VyaXR5U3RhZmZUYWJsZSI+PHBhdGggZD0iTTUzMC4wNCw5OS44MyBDNTI0LjEzLDExNy43MyA1MTMuNTQsMTQzLjA0IDQ5NywxNjAgQzQ4NC45NiwxNzIuMzUgNDc0LjY1NTIsMTc5LjU2MzkgNDU5LjMxNTIsMTg3LjI0MzkgIiBmaWxsPSJub25lIiBpZD0ic2VjdXJpdHlQb2ludC10by1zZWN1cml0eVN0YWZmVGFibGUiIHN0eWxlPSJzdHJva2U6IzE4MTgxODtzdHJva2Utd2lkdGg6MS4wOyIvPjxwb2x5Z29uIGZpbGw9IiMxODE4MTgiIHBvaW50cz0iNDUzLjk1LDE4OS45Myw0NjMuNzg4NSwxODkuNDc3Nyw0NTguNDIxLDE4Ny42OTE2LDQ2MC4yMDcsMTgyLjMyNDEsNDUzLjk1LDE4OS45MyIgc3R5bGU9InN0cm9rZTojMTgxODE4O3N0cm9rZS13aWR0aDoxLjA7Ii8+PHRleHQgZmlsbD0iIzAwMDAwMCIgZm9udC1mYW1pbHk9InNhbnMtc2VyaWYiIGZvbnQtc2l6ZT0iMTMiIGxlbmd0aEFkanVzdD0ic3BhY2luZyIgdGV4dExlbmd0aD0iMTY5IiB4PSI1MDgiIHk9IjE1OC4yODkxIj5TdXBlcnZpc2VkIHNlY3VyaXR5IHN0YWZmPC90ZXh0PjwvZz48IS0tbGluayBzdXBlcnZpc29yIHRvIHNlY3VyaXR5U3RhZmZUYWJsZS0tPjxnIGlkPSJsaW5rX3N1cGVydmlzb3Jfc2VjdXJpdHlTdGFmZlRhYmxlIj48cGF0aCBkPSJNMTgxLjMzLDk5LjU1IEMxNzYuMjQsMTE3LjUzIDE3Mi42OSwxNDMuMDkgMTg2LDE2MCBDMjA0LjYyLDE4My42NSAyNzYuMjA5MSwxOTYuODgzNyAzMzEuODg5MSwyMDQuMDUzNyAiIGZpbGw9Im5vbmUiIGlkPSJzdXBlcnZpc29yLXRvLXNlY3VyaXR5U3RhZmZUYWJsZSIgc3R5bGU9InN0cm9rZTojMTgxODE4O3N0cm9rZS13aWR0aDoxLjA7Ii8+PHBvbHlnb24gZmlsbD0iIzE4MTgxOCIgcG9pbnRzPSIzMzcuODQsMjA0LjgyLDMyOS40MjQ2LDE5OS43MDMzLDMzMi44ODA5LDIwNC4xODE0LDMyOC40MDI4LDIwNy42Mzc4LDMzNy44NCwyMDQuODIiIHN0eWxlPSJzdHJva2U6IzE4MTgxODtzdHJva2Utd2lkdGg6MS4wOyIvPjx0ZXh0IGZpbGw9IiMwMDAwMDAiIGZvbnQtZmFtaWx5PSJzYW5zLXNlcmlmIiBmb250LXNpemU9IjEzIiBsZW5ndGhBZGp1c3Q9InNwYWNpbmciIHRleHRMZW5ndGg9IjE3NSIgeD0iMTg3IiB5PSIxNTguMjg5MSI+U3VwZXJ2aXNpbmcgc2VjdXJpdHkgc3RhZmY8L3RleHQ+PC9nPjwhLS1saW5rIHBhc3NlbmdlclRhYmxlIHRvIHBhc3NlbmdlckxvdW5nZS0tPjxnIGlkPSJsaW5rX3Bhc3NlbmdlclRhYmxlX3Bhc3NlbmdlckxvdW5nZSI+PHBhdGggZD0iTTg0Ny40Miw4OS43MSBDODE1Ljk4LDk5LjkxIDc3My4zNiwxMTcuNjEgNzQ0LDE0NSBDNzMwLjczLDE1Ny4zOCA3MjMuNTU0NywxNzAuMjI2MSA3MTcuNjY0NywxODQuNDU2MSAiIGZpbGw9Im5vbmUiIGlkPSJwYXNzZW5nZXJUYWJsZS10by1wYXNzZW5nZXJMb3VuZ2UiIHN0eWxlPSJzdHJva2U6IzE4MTgxODtzdHJva2Utd2lkdGg6MS4wOyIvPjxwb2x5Z29uIGZpbGw9IiMxODE4MTgiIHBvaW50cz0iNzE1LjM3LDE5MCw3MjIuNTA3OSwxODMuMjE0LDcxNy4yODIyLDE4NS4zODAxLDcxNS4xMTYxLDE4MC4xNTQ0LDcxNS4zNywxOTAiIHN0eWxlPSJzdHJva2U6IzE4MTgxODtzdHJva2Utd2lkdGg6MS4wOyIvPjx0ZXh0IGZpbGw9IiMwMDAwMDAiIGZvbnQtZmFtaWx5PSJzYW5zLXNlcmlmIiBmb250LXNpemU9IjEzIiBsZW5ndGhBZGp1c3Q9InNwYWNpbmciIHRleHRMZW5ndGg9IjkxIiB4PSI3NDUiIHk9IjE1OC4yODkxIj5Mb3VuZ2UgYWNjZXNzPC90ZXh0PjwvZz48IS0tbGluayB2ZW5kb3IgdG8gcGFzc2VuZ2VyTG91bmdlLS0+PGcgaWQ9ImxpbmtfdmVuZG9yX3Bhc3NlbmdlckxvdW5nZSI+PHBhdGggZD0iTTk2LjQ1LDk5LjUyIEMxMDUuNzYsMTA1LjQ0IDExNi40NCwxMTEuMjcgMTI3LDExNSBDMjI4LjM3LDE1MC43NyAyNjMuNzMsMTE1LjE1IDM2NywxNDUgQzM4Mi4wOSwxNDkuMzYgMzg0LDE1NS4zNCAzOTksMTYwIEM0ODAuNjYsMTg1LjM0IDU3Mi42MjIyLDE5OC4xNzg4IDYzNi4wMjIyLDIwNC43Nzg4ICIgZmlsbD0ibm9uZSIgaWQ9InZlbmRvci10by1wYXNzZW5nZXJMb3VuZ2UiIHN0eWxlPSJzdHJva2U6IzE4MTgxODtzdHJva2Utd2lkdGg6MS4wOyIvPjxwb2x5Z29uIGZpbGw9IiMxODE4MTgiIHBvaW50cz0iNjQxLjk5LDIwNS40LDYzMy40NTI1LDIwMC40ODk2LDYzNy4wMTY5LDIwNC44ODIzLDYzMi42MjQyLDIwOC40NDY2LDY0MS45OSwyMDUuNCIgc3R5bGU9InN0cm9rZTojMTgxODE4O3N0cm9rZS13aWR0aDoxLjA7Ii8+PHRleHQgZmlsbD0iIzAwMDAwMCIgZm9udC1mYW1pbHk9InNhbnMtc2VyaWYiIGZvbnQtc2l6ZT0iMTMiIGxlbmd0aEFkanVzdD0ic3BhY2luZyIgdGV4dExlbmd0aD0iODgiIHg9IjQwMCIgeT0iMTU4LjI4OTEiPlNob3AgbG9jYXRpb248L3RleHQ+PC9nPjwhLS1saW5rIHZlbmRvciB0byBkdXR5RnJlZVByb2R1Y3QtLT48ZyBpZD0ibGlua192ZW5kb3JfZHV0eUZyZWVQcm9kdWN0Ij48cGF0aCBkPSJNNTkuMjIsOTkuNzEgQzUzLjU3LDExNi40MyA0OC40MiwxNDAuMTQgNTUsMTYwIEM1OC42MSwxNzAuOSA2MS43NzM2LDE3Ni43MDU2IDY4Ljc1MzYsMTg1LjI4NTYgIiBmaWxsPSJub25lIiBpZD0idmVuZG9yLXRvLWR1dHlGcmVlUHJvZHVjdCIgc3R5bGU9InN0cm9rZTojMTgxODE4O3N0cm9rZS13aWR0aDoxLjA7Ii8+PHBvbHlnb24gZmlsbD0iIzE4MTgxOCIgcG9pbnRzPSI3Mi41NCwxODkuOTQsNjkuOTYzMywxODAuNDM0Miw2OS4zODQ3LDE4Ni4wNjE0LDYzLjc1NzUsMTg1LjQ4MjcsNzIuNTQsMTg5Ljk0IiBzdHlsZT0ic3Ryb2tlOiMxODE4MTg7c3Ryb2tlLXdpZHRoOjEuMDsiLz48dGV4dCBmaWxsPSIjMDAwMDAwIiBmb250LWZhbWlseT0ic2Fucy1zZXJpZiIgZm9udC1zaXplPSIxMyIgbGVuZ3RoQWRqdXN0PSJzcGFjaW5nIiB0ZXh0TGVuZ3RoPSI4OSIgeD0iNTYiIHk9IjE1OC4yODkxIj5Qcm9kdWN0cyBzb2xkPC90ZXh0PjwvZz48IS0tbGluayBwYXNzZW5nZXJUYWJsZSB0byBwdXJjaGFzZS0tPjxnIGlkPSJsaW5rX3Bhc3NlbmdlclRhYmxlX3B1cmNoYXNlIj48cGF0aCBkPSJNOTMwLjgyLDc4Ljc0IEM5ODQuOTksODEuMjYgMTA3OS4zOSw5My40MSAxMTM4LDE0NSBDMTE1MS4xLDE1Ni41MyAxMTU2LjU1NDYsMTY5LjU0NjkgMTE2MC4wNzQ2LDE4NC4xNTY5ICIgZmlsbD0ibm9uZSIgaWQ9InBhc3NlbmdlclRhYmxlLXRvLXB1cmNoYXNlIiBzdHlsZT0ic3Ryb2tlOiMxODE4MTg7c3Ryb2tlLXdpZHRoOjEuMDsiLz48cG9seWdvbiBmaWxsPSIjMTgxODE4IiBwb2ludHM9IjExNjEuNDgsMTg5Ljk5LDExNjMuMjYwNywxODAuMzAzNSwxMTYwLjMwODksMTg1LjEyOTEsMTE1NS40ODMyLDE4Mi4xNzczLDExNjEuNDgsMTg5Ljk5IiBzdHlsZT0ic3Ryb2tlOiMxODE4MTg7c3Ryb2tlLXdpZHRoOjEuMDsiLz48dGV4dCBmaWxsPSIjMDAwMDAwIiBmb250LWZhbWlseT0ic2Fucy1zZXJpZiIgZm9udC1zaXplPSIxMyIgbGVuZ3RoQWRqdXN0PSJzcGFjaW5nIiB0ZXh0TGVuZ3RoPSIxMDIiIHg9IjExNTAiIHk9IjE1OC4yODkxIj5QdXJjaGFzZWQgaXRlbXM8L3RleHQ+PC9nPjwhLS1saW5rIGZsaWdodCB0byBydW53YXlEYXRhLS0+PGcgaWQ9ImxpbmtfZmxpZ2h0X3J1bndheURhdGEiPjxwYXRoIGQ9Ik0xNTQ5LjgsMzY4Ljc2IEMxNTQ5LjEyLDM4MS44MSAxNTQ4LjM0LDM5OC44NiAxNTQ4LDQxNCBDMTU0Ny44NSw0MjAuNjYgMTU0Ni44MSw0MjIuNDQgMTU0OCw0MjkgQzE1NTMuNTgsNDU5LjcgMTU2NC45NjkyLDQ4Ny42NDQ2IDE1NzQuODA5Miw1MDguNjk0NiAiIGZpbGw9Im5vbmUiIGlkPSJmbGlnaHQtdG8tcnVud2F5RGF0YSIgc3R5bGU9InN0cm9rZTojMTgxODE4O3N0cm9rZS13aWR0aDoxLjA7Ii8+PHBvbHlnb24gZmlsbD0iIzE4MTgxOCIgcG9pbnRzPSIxNTc3LjM1LDUxNC4xMywxNTc3LjE2MjQsNTA0LjI4MjksMTU3NS4yMzI2LDUwOS42MDA1LDE1NjkuOTE1MSw1MDcuNjcwNywxNTc3LjM1LDUxNC4xMyIgc3R5bGU9InN0cm9rZTojMTgxODE4O3N0cm9rZS13aWR0aDoxLjA7Ii8+PHRleHQgZmlsbD0iIzAwMDAwMCIgZm9udC1mYW1pbHk9InNhbnMtc2VyaWYiIGZvbnQtc2l6ZT0iMTMiIGxlbmd0aEFkanVzdD0ic3BhY2luZyIgdGV4dExlbmd0aD0iMTAzIiB4PSIxNTQ5IiB5PSI0MjcuMjg5MSI+QXNzaWduZWQgcnVud2F5PC90ZXh0PjwvZz48IS0tU1JDPVtmTFREUnBDZDRCeHhMdzFTdGJDS2dTVnRLQ2NuY3hISU5qTWdlX1BDVGw0UWNTME1NQmtoQWwtem15VjJXNzd3Z2xLOVhjVGNYX2J3eTFVb1BHU2s2SjRkQmliOEROcmRiY2NwU2RrXzlQZnJiaWYxQ0ZCdFlpM2xLVWNVd09xSUlmQ2pyUVV6ZTlPelFwZzdLemdUMWdxY3NHVjQybi1FVFpESmtWZk84UUN6alZJRGNselhTdC1RN3lONEloRXFpdDMtZHNxLVF5T2dId2RNd2w5ejVsdGZ3djV0OXljQzhKeXVHcnpJVjZUWnNKanZTci1hVWJ4YmdEd2prSHdMamNKbDhOVm5PcWNKX0dLOWFMR0c5WXN0ZDFiXzc2dndqd0Y2QzNhbVZLVWVXVnA1N09RMFVVN2l4MnF6NzNvQzFlYU5PRUlVVFBGY1RhUEc0cUxOczZTVkVfQWdnSkpFVXNndmFjSWRyUGR0cUhqUmQycjdzQ1hzV2V5ekdUMzl4cXBzQWdacjg3SW84NWdMbUhZcndZMnVDR1dlWTRfMjlQMXlldjhFeDFyMmpTSW5aVmpyUERneFBKMmttY3dFaDNsVFMtZFR3am82b3JsT0hxTHJwLU5XaU16blNuRENYbTdTOTN6SnNPa2E1OElCQkViLVY3QURGTlpMSnlkNG1La3B5MUZEUnFmb280NmZjT01oeUVLd29nYjJWNllBMmw2STZqLWthWnRKUG12ZlI1SjlTYkdSb2ZNb0Z3Z25JM0NnY0lva29pUUQ2c0JXUWo1bzZaekJULTItZzEwWE8yWEFyVmFoRDNtQnZ6T2xnX0NUZFBFWk9yWFY4UGZEXzRoVkhFdENKLSAtWkszQ0JfaEF1UUpmQ3JqUDIxcjY5Tkstb0lZS005QXgzMmw2WVoyTEdja0o5UFRHMzFPWk1pbFUyMmhzMVdXWFQwdWxoWUJqcUJuNXR3elBEZUd5NjZZOW96Q2s2Nks1cHZsb2NUYUQwQjhDVlJiTVREZWxKZW1DbmIwVmpZQTVINlVFTTlzSzZmeFJQQUh4cGlSSURiem8ydHZaM2hOM2pmejZyWmViM3JBSmpoTGVaQnQzN2NGOUtTYTVNZ1EzUFYwdXBrSnBGbEdhcGxmLXdpWVVaaDdQWnFqcUhMazdwU0xEWFZmbGFYU3gwajlQd2NGUHhqc3JyenE2ZUl5WG1rV3N2bF96bmNUbGFBcmQ2VUdES3BMdTBGdzhrbTdwZnVWTVMxTm5pRVhEYTJxY3Q1VkVPSE9mR1BMRkdnZnIxM2NSN19BS3psMldEM292NkNnWWFVbEFuQzhMTW02SlZpYVZmMHNxVXpwaGp1R3FzT2MtTHZwM0dfdm9PaVFQWERrYi13YWh2RGwzT3d6YUZVaHo4ZzVHOHlLb2M0UElOZ055REJSd01qVmhoOGpEQ1gwVjNhT19HeENuVXVBcjhoNmw1TzNzUVNIUm5NMEV4TW1QbElKamZ6aDNNY2ZfWEFIUzEzSnRfTEZrd2w0eVctdllLNDdJUF9PM1RTUTZpVVRYZVRnYkhXUDBTOWZOeGNyQkczYUZDR0pYdHE0WEQ3WGpNRlJFS1ltT0d5ckRYLXVQNkJieGExa2dsb2c5Sm1UbTJVZWJ6M2J4MHVQcVNsZkIySzhPbHE2R1RsWGdDU19JN3FnVThocEFKRUJDaWJoS25WOTJpWnZBWVRNelUwVHlRZlNjbmY0a3d2V0VOM3JqZTRJdjNub0otSEVYMFh6VzVIOTFMNUpmSW5DWTJBNTZBRjN5MkMzbmM0NXFzU2pEWW4temgtUVBjN0xOTFNVWk9QYnBwWUNpYjVQZ3ZCcTlSYTZpbjRaRF9raGFPSUhBcWJ0Q3RYb0R6UG1oelRta2tTWGVjNmk2aGdET05YYl9HcGxzbnlNaGRGRHNrdVZ4ekFySU43b05kd3M0T0lUVHJONVoxWXEyOV9nUEphTzBURll2bmF3NlFvWG9DZ29mOExuX18wMDAwXS0tPjwvZz48L3N2Zz4=;movable=1;resizable=1;rotatable=1;deletable=1;editable=1;locked=0;connectable=1;points=[[0,0,0,0,0],[0,0.25,0,0,0],[0,0.5,0,0,0],[0,0.75,0,0,0],[0,1,0,0,0],[0.25,0,0,0,0],[0.25,1,0,0,0],[0.5,0,0,0,0],[0.5,1,0,0,0],[0.75,0,0,0,0],[0.75,1,0,0,0],[1,0,0,0,0],[1,0.25,0,0,0],[1,0.5,0,0,0],[1,0.75,0,0,0],[1,1,0,0,0]];" vertex="1" parent="1">
            <mxGeometry x="50" y="100" width="3061.62" height="1220" as="geometry" />
          </mxCell>
        </UserObject>
      </root>
    </mxGraphModel>
  </diagram>
</mxfile>
